<svg width="1512" height="2821" viewBox="0 0 1512 2821" fill="none" xmlns="http://www.w3.org/2000/svg">
<g clip-path="url(#clip0_133_42)">
<rect width="1512" height="2821" fill="#FAF9F5"/>
<line y1="-0.5" x2="1557" y2="-0.5" transform="matrix(1 0.000888965 -0.00294059 0.999996 -33 424)" stroke="#D76A2B" stroke-opacity="0.68"/>
<line y1="-0.5" x2="1557" y2="-0.5" transform="matrix(1 0.000888965 -0.00294059 0.999996 -33 431)" stroke="#D76A2B" stroke-opacity="0.68"/>
<line y1="-0.5" x2="3049.57" y2="-0.5" transform="matrix(0 -1 0.999992 0.00401832 122 2834.47)" stroke="#D76A2B" stroke-opacity="0.68"/>
<line y1="-0.5" x2="3119.5" y2="-0.5" transform="matrix(0 -1 0.999992 0.00411047 1360 2844.44)" stroke="#D76A2B" stroke-opacity="0.68"/>
<line y1="-0.5" x2="1557" y2="-0.5" transform="matrix(1 0.000888965 -0.00294059 0.999996 -21 144)" stroke="#D76A2B" stroke-opacity="0.68"/>
<line y1="-0.5" x2="3049.57" y2="-0.5" transform="matrix(0 -1 0.999992 0.00401832 131 2836)" stroke="#D76A2B" stroke-opacity="0.68"/>
<line y1="-0.5" x2="3119.5" y2="-0.5" transform="matrix(0 -1 0.999992 0.00411047 1369 2846)" stroke="#D76A2B" stroke-opacity="0.68"/>
<line y1="-0.5" x2="1557" y2="-0.5" transform="matrix(1 0.000888965 -0.00294059 0.999996 -21 151)" stroke="#D76A2B" stroke-opacity="0.68"/>
<line y1="-0.5" x2="3049.57" y2="-0.5" transform="matrix(0 -1 0.999992 0.00401832 141 2830.12)" stroke="#D76A2B" stroke-opacity="0.68"/>
<line y1="-0.5" x2="3119.5" y2="-0.5" transform="matrix(0 -1 0.999992 0.00411047 1379 2840)" stroke="#D76A2B" stroke-opacity="0.68"/>
<line y1="-0.5" x2="3119.5" y2="-0.5" transform="matrix(0 -1 0.999992 0.00411047 1389 2840.62)" stroke="#D76A2B" stroke-opacity="0.68"/>
<line y1="-0.5" x2="1557" y2="-0.5" transform="matrix(1 0.000888965 -0.00294059 0.999996 -21 158)" stroke="#D76A2B" stroke-opacity="0.68"/>
<line y1="-0.5" x2="1557" y2="-0.5" transform="matrix(1 0.000888965 -0.00294059 0.999996 -21 254)" stroke="#D76A2B" stroke-opacity="0.68"/>
<line y1="-0.5" x2="1557" y2="-0.5" transform="matrix(1 0.000888965 -0.00294059 0.999996 -22 60)" stroke="#D76A2B" stroke-opacity="0.68"/>
<line y1="-0.5" x2="1557" y2="-0.5" transform="matrix(1 0.000888965 -0.00294059 0.999996 -27 415)" stroke="#D76A2B" stroke-opacity="0.68"/>
<line y1="-0.5" x2="1557" y2="-0.5" transform="matrix(1 0.000888965 -0.00294059 0.999996 -30 583)" stroke="#D76A2B" stroke-opacity="0.68"/>
<line y1="-0.5" x2="1557" y2="-0.5" transform="matrix(1 0.000888965 -0.00294059 0.999996 -33 751)" stroke="#D76A2B" stroke-opacity="0.68"/>
<line y1="-0.5" x2="1557" y2="-0.5" transform="matrix(1 0.000888965 -0.00294059 0.999996 -27 338)" stroke="#D76A2B" stroke-opacity="0.68"/>
<line y1="-0.5" x2="1557" y2="-0.5" transform="matrix(1 0.000888965 -0.00294059 0.999996 -33 499)" stroke="#D76A2B" stroke-opacity="0.68"/>
<line y1="-0.5" x2="1557" y2="-0.5" transform="matrix(1 0.000888965 -0.00294059 0.999996 -36 667)" stroke="#D76A2B" stroke-opacity="0.68"/>
<line y1="-0.5" x2="1557" y2="-0.5" transform="matrix(1 0.000888965 -0.00294059 0.999996 -36 676)" stroke="#D76A2B" stroke-opacity="0.68"/>
<line y1="-0.5" x2="1557" y2="-0.5" transform="matrix(1 0.000888965 -0.00294059 0.999996 -36 684)" stroke="#D76A2B" stroke-opacity="0.68"/>
<line y1="-0.5" x2="1557" y2="-0.5" transform="matrix(1 0.000888965 -0.00294059 0.999996 -39 835)" stroke="#D76A2B" stroke-opacity="0.68"/>
<line y1="-0.5" x2="1557" y2="-0.5" transform="matrix(1 0.000888965 -0.00294059 0.999996 -33 1004)" stroke="#D76A2B" stroke-opacity="0.68"/>
<line y1="-0.5" x2="1557" y2="-0.5" transform="matrix(1 0.000888965 -0.00294059 0.999996 -36 920)" stroke="#D76A2B" stroke-opacity="0.68"/>
<line y1="-0.5" x2="1557" y2="-0.5" transform="matrix(1 0.000888965 -0.00294059 0.999996 -36 929)" stroke="#D76A2B" stroke-opacity="0.68"/>
<line y1="-0.5" x2="1557" y2="-0.5" transform="matrix(1 0.000888965 -0.00294059 0.999996 -36 938)" stroke="#D76A2B" stroke-opacity="0.68"/>
<line y1="-0.5" x2="1557" y2="-0.5" transform="matrix(1 0.000888965 -0.00294059 0.999996 -39 1088)" stroke="#D76A2B" stroke-opacity="0.68"/>
<line y1="-0.5" x2="1557" y2="-0.5" transform="matrix(1 0.000888965 -0.00294059 0.999996 -45 1174)" stroke="#D76A2B" stroke-opacity="0.68"/>
<line y1="-0.5" x2="1557" y2="-0.5" transform="matrix(1 0.000888965 -0.00294059 0.999996 -39 1165)" stroke="#D76A2B" stroke-opacity="0.68"/>
<line y1="-0.5" x2="1557" y2="-0.5" transform="matrix(1 0.000888965 -0.00294059 0.999996 -39 1157)" stroke="#D76A2B" stroke-opacity="0.68"/>
<line y1="-0.5" x2="1557" y2="-0.5" transform="matrix(1 0.000888965 -0.00294059 0.999996 -42 1333)" stroke="#D76A2B" stroke-opacity="0.68"/>
<line y1="-0.5" x2="1557" y2="-0.5" transform="matrix(1 0.000888965 -0.00294059 0.999996 -45 1501)" stroke="#D76A2B" stroke-opacity="0.68"/>
<line y1="-0.5" x2="1557" y2="-0.5" transform="matrix(1 0.000888965 -0.00294059 0.999996 -45 1249)" stroke="#D76A2B" stroke-opacity="0.68"/>
<line y1="-0.5" x2="1557" y2="-0.5" transform="matrix(1 0.000888965 -0.00294059 0.999996 -48 1417)" stroke="#D76A2B" stroke-opacity="0.68"/>
<line y1="-0.5" x2="1557" y2="-0.5" transform="matrix(1 0.000888965 -0.00294059 0.999996 -48 1423)" stroke="#D76A2B" stroke-opacity="0.68"/>
<line y1="-0.5" x2="1557" y2="-0.5" transform="matrix(1 0.000888965 -0.00294059 0.999996 -48 1429)" stroke="#D76A2B" stroke-opacity="0.68"/>
<line y1="-0.5" x2="1557" y2="-0.5" transform="matrix(1 0.000888965 -0.00294059 0.999996 -51 1585)" stroke="#D76A2B" stroke-opacity="0.68"/>
<line y1="-0.5" x2="1557" y2="-0.5" transform="matrix(1 0.000888965 -0.00294059 0.999996 -45 1501)" stroke="#D76A2B" stroke-opacity="0.68"/>
<line y1="-0.5" x2="1557" y2="-0.5" transform="matrix(1 0.000888965 -0.00294059 0.999996 -48 1417)" stroke="#D76A2B" stroke-opacity="0.68"/>
<line y1="-0.5" x2="1557" y2="-0.5" transform="matrix(1 0.000888965 -0.00294059 0.999996 -48 1423)" stroke="#D76A2B" stroke-opacity="0.68"/>
<line y1="-0.5" x2="1557" y2="-0.5" transform="matrix(1 0.000888965 -0.00294059 0.999996 -48 1429)" stroke="#D76A2B" stroke-opacity="0.68"/>
<line y1="-0.5" x2="1557" y2="-0.5" transform="matrix(1 0.000888965 -0.00294059 0.999996 -51 1585)" stroke="#D76A2B" stroke-opacity="0.68"/>
<line y1="-0.5" x2="1557" y2="-0.5" transform="matrix(1 0.000888965 -0.00294059 0.999996 -45 1757)" stroke="#D76A2B" stroke-opacity="0.68"/>
<line y1="-0.5" x2="1557" y2="-0.5" transform="matrix(1 0.000888965 -0.00294059 0.999996 -51 1841)" stroke="#D76A2B" stroke-opacity="0.68"/>
<line y1="-0.5" x2="1557" y2="-0.5" transform="matrix(1 0.000888965 -0.00294059 0.999996 -48 1670)" stroke="#D76A2B" stroke-opacity="0.68"/>
<line y1="-0.5" x2="1557" y2="-0.5" transform="matrix(1 0.000888965 -0.00294059 0.999996 -48 1679)" stroke="#D76A2B" stroke-opacity="0.68"/>
<line y1="-0.5" x2="1557" y2="-0.5" transform="matrix(1 0.000888965 -0.00294059 0.999996 -48 1687)" stroke="#D76A2B" stroke-opacity="0.68"/>
<line y1="-0.5" x2="1557" y2="-0.5" transform="matrix(1 0.000888965 -0.00294059 0.999996 -42 2015)" stroke="#D76A2B" stroke-opacity="0.68"/>
<line y1="-0.5" x2="1557" y2="-0.5" transform="matrix(1 0.000888965 -0.00294059 0.999996 -48 2099)" stroke="#D76A2B" stroke-opacity="0.68"/>
<line y1="-0.5" x2="1557" y2="-0.5" transform="matrix(1 0.000888965 -0.00294059 0.999996 -45 1928)" stroke="#D76A2B" stroke-opacity="0.68"/>
<line y1="-0.5" x2="1557" y2="-0.5" transform="matrix(1 0.000888965 -0.00294059 0.999996 -45 1937)" stroke="#D76A2B" stroke-opacity="0.68"/>
<line y1="-0.5" x2="1557" y2="-0.5" transform="matrix(1 0.000888965 -0.00294059 0.999996 -45 1945)" stroke="#D76A2B" stroke-opacity="0.68"/>
<line y1="-0.5" x2="1557" y2="-0.5" transform="matrix(1 0.000888965 -0.00294059 0.999996 -36 2264)" stroke="#D76A2B" stroke-opacity="0.68"/>
<line y1="-0.5" x2="1557" y2="-0.5" transform="matrix(1 0.000888965 -0.00294059 0.999996 -42 2348)" stroke="#D76A2B" stroke-opacity="0.68"/>
<line y1="-0.5" x2="1557" y2="-0.5" transform="matrix(1 0.000888965 -0.00294059 0.999996 -39 2177)" stroke="#D76A2B" stroke-opacity="0.68"/>
<line y1="-0.5" x2="1557" y2="-0.5" transform="matrix(1 0.000888965 -0.00294059 0.999996 -39 2186)" stroke="#D76A2B" stroke-opacity="0.68"/>
<line y1="-0.5" x2="1557" y2="-0.5" transform="matrix(1 0.000888965 -0.00294059 0.999996 -39 2194)" stroke="#D76A2B" stroke-opacity="0.68"/>
<line y1="-0.5" x2="1557" y2="-0.5" transform="matrix(1 0.000888965 -0.00294059 0.999996 -19 2513)" stroke="#D76A2B" stroke-opacity="0.68"/>
<line y1="-0.5" x2="1557" y2="-0.5" transform="matrix(1 0.000888965 -0.00294059 0.999996 -25 2597)" stroke="#D76A2B" stroke-opacity="0.68"/>
<line y1="-0.5" x2="1557" y2="-0.5" transform="matrix(1 0.000888965 -0.00294059 0.999996 -22 2426)" stroke="#D76A2B" stroke-opacity="0.68"/>
<line y1="-0.5" x2="1557" y2="-0.5" transform="matrix(1 0.000888965 -0.00294059 0.999996 -22 2435)" stroke="#D76A2B" stroke-opacity="0.68"/>
<line y1="-0.5" x2="1557" y2="-0.5" transform="matrix(1 0.000888965 -0.00294059 0.999996 -22 2443)" stroke="#D76A2B" stroke-opacity="0.68"/>
<line y1="-0.5" x2="1557" y2="-0.5" transform="matrix(1 0.000888965 -0.00294059 0.999996 -13 2768)" stroke="#D76A2B" stroke-opacity="0.68"/>
<line y1="-0.5" x2="1557" y2="-0.5" transform="matrix(1 0.000888965 -0.00294059 0.999996 -16 2681)" stroke="#D76A2B" stroke-opacity="0.68"/>
<line y1="-0.5" x2="1557" y2="-0.5" transform="matrix(1 0.000888965 -0.00294059 0.999996 -16 2690)" stroke="#D76A2B" stroke-opacity="0.68"/>
<line y1="-0.5" x2="1557" y2="-0.5" transform="matrix(1 0.000888965 -0.00294059 0.999996 -16 2698)" stroke="#D76A2B" stroke-opacity="0.68"/>
<line y1="-0.5" x2="3049.57" y2="-0.5" transform="matrix(0 -1 0.999992 0.00401832 150 2828.19)" stroke="#D76A2B" stroke-opacity="0.68"/>
<line x1="966.5" y1="2852" x2="966.5" y2="-30" stroke="#D76A2B" stroke-opacity="0.68"/>
<path d="M805.975 2852.62L807.025 -29.3749" stroke="#D76A2B" stroke-opacity="0.68"/>
<line x1="1212.5" y1="2853" x2="1212.5" y2="-29" stroke="#D76A2B" stroke-opacity="0.68"/>
<path d="M638.5 2851.59L635.999 -30.4059" stroke="#D76A2B" stroke-opacity="0.68"/>
<line x1="1044.5" y1="2853" x2="1044.5" y2="-29" stroke="#D76A2B" stroke-opacity="0.68"/>
<line x1="468.5" y1="2851" x2="468.5" y2="-51" stroke="#D76A2B" stroke-opacity="0.68"/>
<line x1="301.5" y1="2850" x2="301.5" y2="-41.0001" stroke="#D76A2B" stroke-opacity="0.68"/>
<path d="M882 2851.59L883.3 -30.4063" stroke="#D76A2B" stroke-opacity="0.68"/>
<line y1="-0.5" x2="2882" y2="-0.5" transform="matrix(0.00072721 -1 0.999999 0.0016624 1290 2853)" stroke="#D76A2B" stroke-opacity="0.68"/>
<line x1="722.5" y1="2851" x2="722.5" y2="-31" stroke="#D76A2B" stroke-opacity="0.68"/>
<line y1="-0.5" x2="2882" y2="-0.5" transform="matrix(9.99264e-06 -1 1 1.98993e-05 1129 2853)" stroke="#D76A2B" stroke-opacity="0.68"/>
<line x1="554.5" y1="2851" x2="554.5" y2="-31" stroke="#D76A2B" stroke-opacity="0.68"/>
<line x1="383.5" y1="2851" x2="383.5" y2="-51" stroke="#D76A2B" stroke-opacity="0.68"/>
<line x1="209.5" y1="2850" x2="209.5" y2="-18" stroke="#D76A2B" stroke-opacity="0.68"/>
</g>
<defs>
<clipPath id="clip0_133_42">
<rect width="1512" height="2821" fill="white"/>
</clipPath>
</defs>
</svg>
