<svg width="363" height="577" viewBox="0 0 363 577" fill="none" xmlns="http://www.w3.org/2000/svg">
<g clip-path="url(#clip0_160_68)">
<g opacity="0.9">
<path d="M2.88965 544.42V172C2.88965 163.08 9.37965 155.46 18.1996 154.13C114.82 139.5 174.73 107.96 201.76 60.17C204.24 55.78 205.23 50.7 204.77 45.67C201.34 8.09002 227.39 -3.74998 273.08 4.39002C295.47 28.94 301.46 55.74 273.08 87.25L240.56 114.02C233.68 119.68 229.47 128 229.13 136.91C228.03 165.93 238.84 178.45 260.97 175.29C272.18 173.69 282.58 168.52 290.95 160.91C317.65 136.63 341.1 121.6 354.19 136.05C357.77 140 359.59 145.24 359.59 150.58V548.51C359.59 562.94 347.67 574.53 333.24 574.12L23.1096 565.25C11.8496 564.93 2.88965 555.71 2.88965 544.44V544.42Z" fill="#E37C4A"/>
<path d="M0.58 546.82C0.44 543.78 0.1 544.87 0 544.41C0.13 547.01 0.42 547.56 0.53 547.49C0.64 547.42 0.63 546.75 0.59 546.82H0.58Z" fill="#E37C4A"/>
<path d="M38.2199 567.14L37.4199 567.29L44.0799 567.06L38.2199 567.14Z" fill="#E37C4A"/>
<path d="M80.37 568.35C76.41 567.52 65.09 568.03 57.59 567.56L56.36 567.36L52.96 567.84C62.09 568.01 73.95 567.97 80.38 568.35H80.37Z" fill="#E37C4A"/>
<path d="M102.8 570.54C101.42 570.22 107.67 570.44 97.5596 570.3C98.0696 570.35 98.2096 570.37 98.5096 570.4C99.4196 570.43 100.67 570.47 102.8 570.54Z" fill="#E37C4A"/>
<path d="M98.5099 570.4C94.0699 570.29 101.41 570.72 98.5099 570.4V570.4Z" fill="#E37C4A"/>
<path d="M119.02 570.83L113.17 570.91C114.39 571.11 119.59 571.29 117.65 571.36C123.65 571.4 122.42 571.2 119.02 570.83Z" fill="#E37C4A"/>
<path d="M124.57 570.47L121.54 570.49C122.07 570.57 122.87 570.62 124.57 570.47Z" fill="#E37C4A"/>
<path d="M115.11 570.52L121.54 570.48C120.7 570.34 120.61 570.11 118.59 570.48C119.12 570.28 117.85 570.45 115.11 570.52Z" fill="#E37C4A"/>
<path d="M111.47 570.31C108.19 570.06 103.96 569.84 109.84 569.76C98.6501 569.54 100.29 570.09 111.47 570.31Z" fill="#E37C4A"/>
<path d="M82.5501 567.68L78.1701 567.35L74.3701 567.48C76.2701 567.42 82.8101 567.92 82.5501 567.68Z" fill="#E37C4A"/>
<path d="M155.43 572.24C155.8 572.1 153.48 571.78 153.04 571.57L148.72 571.62C150.94 571.79 155.14 572 155.43 572.24Z" fill="#E37C4A"/>
<path d="M153.04 571.57L159.51 571.49C153.74 571.29 152.68 571.39 153.04 571.57Z" fill="#E37C4A"/>
<path d="M125.64 569.7L115.01 569.95L127.69 569.75L125.64 569.7Z" fill="#E37C4A"/>
<path d="M180.11 572.96L176.43 573.21L182.97 572.87L180.11 572.96Z" fill="#E37C4A"/>
<path d="M196.48 573.37C193.76 573.58 200.18 573.97 197.31 574.07C201.76 574.15 205.56 574 208.99 573.88C205.35 573.9 201.48 573.76 196.48 573.38V573.37Z" fill="#E37C4A"/>
<path d="M214.74 573.71C212.92 573.73 211.04 573.8 208.99 573.87C210.92 573.86 212.82 573.82 214.74 573.71Z" fill="#E37C4A"/>
<path d="M170.52 571.89C171.02 572 171.97 572.26 175.59 572.47L173.06 571.97C172.28 571.95 171.41 571.92 170.52 571.89Z" fill="#E37C4A"/>
<path d="M172.97 571.95L173.06 571.97C175.82 572.06 177.73 572.12 178.55 572.15C177.85 572.13 176.17 572.07 172.97 571.95Z" fill="#E37C4A"/>
<path d="M169.88 571.87C170.12 571.87 170.29 571.88 170.52 571.89C170.28 571.84 170.13 571.82 169.88 571.87Z" fill="#E37C4A"/>
<path d="M142.57 570.57C146.37 570.44 154.3 570.41 146.65 569.83C143.92 570.04 148.3 570.38 142.57 570.57Z" fill="#E37C4A"/>
<path d="M166.74 571.24L159.88 570.95C160.01 571.07 161.24 571.27 159.36 571.33L166.74 571.24Z" fill="#E37C4A"/>
<path d="M170.1 571.2L166.74 571.24L169.28 571.35L170.1 571.2Z" fill="#E37C4A"/>
<path d="M202.99 572.97C205.96 572.87 209.2 572.95 212.87 573.02C208.95 572.82 204.89 572.66 201.03 572.55C200.48 572.67 198.78 572.86 202.99 572.97Z" fill="#E37C4A"/>
<path d="M188.41 572.44C188.61 572.44 188.88 572.44 189.07 572.44C188.67 572.39 188.34 572.37 188.41 572.44Z" fill="#E37C4A"/>
<path d="M248.94 574.06C248.74 574.03 248.57 574 248.36 573.97C248.31 573.99 248.28 574.02 248.22 574.04L248.93 574.06H248.94Z" fill="#E37C4A"/>
<path d="M200.38 572.46C197.43 572.29 195.66 572.35 193.98 572.43C196.19 572.45 198.53 572.49 201.04 572.56C201.29 572.51 201.33 572.47 200.38 572.46Z" fill="#E37C4A"/>
<path d="M224.8 573.8C223.27 573.67 221.52 573.54 219.7 573.42C221.2 573.6 224.26 573.9 224.8 573.8Z" fill="#E37C4A"/>
<path d="M190.06 572.58C189.91 572.58 189.78 572.58 189.62 572.58C190.58 572.7 190.47 572.65 190.06 572.58Z" fill="#E37C4A"/>
<path d="M190.06 572.58C191.58 572.56 192.78 572.49 193.98 572.43C192.18 572.41 190.51 572.41 189.07 572.43C189.43 572.47 189.8 572.53 190.06 572.58Z" fill="#E37C4A"/>
<path d="M259.94 571.63C259.41 572.01 251.64 572.16 244.95 571.54C238.35 571.65 242.62 573.07 248.36 573.97C248.57 573.8 248.57 573.64 255.36 573.6C252.99 573.32 240.32 572.66 246.06 572.47C255.05 572.52 253.42 572.82 257.78 573.15C254.08 572.55 269.23 572.76 267.3 571.98L259.41 572.01C259.27 571.89 262.13 571.79 259.94 571.63Z" fill="#E37C4A"/>
<path d="M235.44 573.56L232.65 573.53C235.83 573.69 238.1 573.91 242.29 574.34C246.94 574.28 247.91 574.16 248.23 574.04L234.49 573.59L235.45 573.56H235.44Z" fill="#E37C4A"/>
<path d="M220.11 573.17C222.3 572.8 229.01 572.81 224.92 572.23C216.73 572.03 219.17 572.43 214.27 572.47C227.49 572.74 210.47 572.6 220.01 573.12C217.41 573.12 215.07 573.07 212.87 573.03C215.25 573.17 217.54 573.3 219.7 573.42C219.58 573.41 219.5 573.4 219.4 573.38H219.34H219.35C218.78 573.31 218.59 573.27 219.24 573.32C219.28 573.32 219.44 573.32 219.52 573.32C219.61 573.26 219.86 573.22 220.12 573.17C223.95 573.37 220.72 573.3 219.52 573.32C219.48 573.34 219.37 573.36 219.36 573.38C219.37 573.38 219.39 573.38 219.41 573.38L232.66 573.52C229.86 573.38 226.35 573.29 220.13 573.16L220.11 573.17Z" fill="#E37C4A"/>
<path d="M153.73 569.11C154.14 569.16 154.12 569.19 154.15 569.22C155.01 569.19 155.33 569.16 153.73 569.11Z" fill="#E37C4A"/>
<path d="M159.17 569.52C158.2 569.55 157.4 569.7 154.27 569.57C151.56 569.36 154.29 569.36 154.15 569.22C152.26 569.28 147.54 569.34 153.45 569.72L154.39 569.69C159.72 569.99 166.55 570.72 165.62 570.76C164.08 570.33 162.71 570.01 159.18 569.53L159.17 569.52Z" fill="#E37C4A"/>
<path d="M190.03 571.25L201.06 571.35L195.46 570.82L195.74 571.05C189.47 570.78 190.82 571.1 190.03 571.25Z" fill="#E37C4A"/>
<path d="M250.19 574.31L248.72 574.72L255.1 574.26L250.19 574.31Z" fill="#E37C4A"/>
<path d="M264.52 574.67L263.98 575.05L267.77 574.92L264.52 574.67Z" fill="#E37C4A"/>
<path d="M289.75 43.44C289.62 42.42 289.54 41.41 289.36 40.4C289.57 41.83 289.65 42.76 289.75 43.44Z" fill="#E37C4A"/>
<path d="M285.28 65.0901L285.23 65.6801C285.56 64.6801 285.66 64.2601 285.28 65.0901Z" fill="#E37C4A"/>
<path d="M362.08 306.1C362.45 301.38 363.02 296.11 362.58 296.68L362.15 298.13C362.23 301.43 362.18 303.96 362.09 306.1H362.08Z" fill="#E37C4A"/>
<path d="M294.54 157.82C294.9 157.55 295.28 157.28 295.66 157C296.43 156.13 297.15 155.32 297.79 154.59C296.81 155.56 295.7 156.66 294.54 157.81V157.82Z" fill="#E37C4A"/>
<path d="M293.26 161.37C291.69 162.68 289.97 164.06 288.24 165.27C288.85 164.88 289.54 164.35 290.4 163.72C291.23 163.07 292.21 162.27 293.27 161.37H293.26Z" fill="#E37C4A"/>
<path d="M207.71 32.8201C207.72 34.0201 207.76 35.2101 207.83 36.4001C208.03 33.6301 208.08 32.8601 208.03 32.7201C207.97 32.5701 207.78 33.0501 207.71 32.8201Z" fill="#E37C4A"/>
<path d="M361.97 511.32C362.14 507.25 362.21 504 362.23 501.16C361.98 506.07 361.61 510.03 361.97 511.32Z" fill="#E37C4A"/>
<path d="M293.83 52.86C294.09 50.8 294.01 49.9 293.93 49.95C293.89 51.02 293.81 51.85 293.76 52.36C293.73 52.87 293.74 53.07 293.83 52.86Z" fill="#E37C4A"/>
<path d="M362.23 489.4C362.2 490.12 362.16 490.82 362.13 491.55C362.2 494.53 362.26 497.53 362.23 501.16C362.42 497.54 362.53 493.38 362.23 489.39V489.4Z" fill="#E37C4A"/>
<path d="M5.37031 369.65C5.35031 369.99 5.33031 370.39 5.32031 370.7C5.38031 370.8 5.38031 370.33 5.37031 369.65Z" fill="#E37C4A"/>
<path d="M0.990135 505.05C0.990135 503.72 0.970135 501.54 0.960135 499.49C0.930135 500.49 0.930135 502.17 0.990135 505.05Z" fill="#E37C4A"/>
<path d="M322.16 576.5C319.12 576.44 321.68 576.53 322.16 576.5V576.5Z" fill="#E37C4A"/>
<path d="M307.43 574.37C308.08 574.34 308.57 574.29 308.65 574.19C308.4 574.29 307.97 574.34 307.43 574.37Z" fill="#E37C4A"/>
<path d="M359.53 459.11C359.53 459.02 359.53 458.95 359.53 458.85C359.45 459.75 359.46 459.6 359.53 459.11Z" fill="#E37C4A"/>
<path d="M317.6 576.18C318.74 576.27 320.05 576.35 321.48 576.42C320.85 576.37 319.67 576.29 317.6 576.18Z" fill="#E37C4A"/>
<path d="M318.21 576.4C317.16 576.35 316.34 576.32 315.56 576.28C315.17 576.34 315.51 576.4 318.21 576.4Z" fill="#E37C4A"/>
<path d="M326.4 576.6C324.66 576.56 323.04 576.49 321.48 576.41C322.08 576.46 322.33 576.49 322.16 576.5C323.05 576.52 324.31 576.55 326.39 576.6H326.4Z" fill="#E37C4A"/>
<path d="M43.8101 151.02C43.6101 151.05 43.3801 151.07 43.1601 151.1C40.1701 151.85 41.4901 151.57 43.8101 151.02Z" fill="#E37C4A"/>
<path d="M357.58 226.98C357.58 227.12 357.59 227.2 357.6 227.33C357.6 227.19 357.61 227.01 357.62 226.88L357.58 226.98Z" fill="#E37C4A"/>
<path d="M357.25 216.06C357.79 220.71 357.72 223.35 357.61 226.88L358.86 223.27L357.25 216.07V216.06Z" fill="#E37C4A"/>
<path d="M260.97 5.17003L264.69 5.81003L268.4 6.54003C263.85 6.18003 259.97 5.87003 258.08 5.82003C256.19 5.74003 256.32 5.84003 259.78 6.42003C260.08 6.09003 262.03 6.14003 264.83 6.39003C266.23 6.55002 267.83 6.71002 269.54 6.99003C270.15 7.08003 270.78 7.18003 271.41 7.28003C271.51 7.27003 271.55 7.37003 271.62 7.43003L272.34 8.23003C274.74 10.94 276.97 13.78 278.63 15.98C280.31 18.17 281.42 19.74 281.87 19.77L282.98 21.95L284 24.16C283.35 22.93 283.21 22.76 282.52 21.56C284.56 25.82 285.34 27.34 286.45 29.14C286.93 30.06 287.54 31.05 288.11 32.58C288.72 34.09 289.33 36.15 289.77 39.15C290.29 43.36 289.94 46.29 289.76 43.44C290.04 46.53 289.95 49.67 289.54 52.77C289.3 54.12 289.09 54.6 289.08 54.43C289.05 54.25 289.22 53.42 289.41 52.08C288.76 56.79 287.24 61.39 285.25 65.77V65.66C284.6 67.62 282.65 71.95 281.43 73.94C279.25 76.98 282.32 72.29 281.65 73L280.63 74.76L279.54 76.48C278.83 77.64 278.03 78.74 277.26 79.87C274.94 82.27 278.93 76.8 281.86 72.07C280.57 73.49 279.73 74.55 278.97 75.53C278.25 76.53 277.64 77.46 276.86 78.6C276.11 79.77 275.12 81.11 273.66 82.94C273.28 83.38 272.86 83.86 272.42 84.37C272.2 84.62 271.96 84.89 271.72 85.16C271.62 85.27 271.52 85.38 271.42 85.49C271.35 85.56 271.35 85.54 271.16 85.7C269.91 86.69 268.47 87.8 266.79 89.05L269.76 86.49L271.14 85.3L272.19 84.03C271.95 84.23 271.72 84.44 271.48 84.65L271.12 84.97C271.01 85.07 270.99 85.07 270.95 85.08C270.92 85.1 270.94 85.07 270.86 85.12L270.65 85.26L270.23 85.55C269.95 85.75 269.66 85.95 269.37 86.16C268.21 87 267.01 87.92 265.72 88.92C263.14 90.93 260.21 93.27 256.64 95.91C258.42 94.77 271.12 85.56 264.37 91.55C262.34 93.09 259.73 95.18 256.15 98.48C255.81 98.14 252.22 101.25 247.65 105.04L247.56 104.29C242.72 108.52 243.32 108.44 240.58 111.07C239.23 112.17 237.97 113.13 237.04 113.98C236.56 114.39 236.14 114.77 235.78 115.11C235.41 115.45 235.07 115.74 234.78 116.02C233.6 117.11 232.91 117.68 232.19 118.31C231.27 119.6 230.75 120.51 230.43 121.08C230.12 121.66 230.03 121.91 230.06 121.92C230.12 121.96 230.69 121.11 231.28 120.38C231.85 119.63 232.46 119.01 232.37 119.3C232.34 119.46 232.1 119.82 231.7 120.57C231.29 121.32 230.65 122.42 229.9 124.08C227.65 128.66 226.77 133.16 226.76 137.68C226.73 142.06 226.91 146.73 228 152.53C229.07 159.39 227.37 151.41 227.64 153.89C228.2 155.89 228.85 157.87 229.66 159.79C230.16 161.24 229.85 160.82 229.69 160.61C230.17 161.85 230.53 162.45 230.76 162.81C230.99 163.17 231.12 163.27 231.3 163.46C231.48 163.65 231.7 163.92 232.12 164.59C232.56 165.26 233.2 166.34 234.46 167.99C234.94 168.33 235.75 169.4 237.08 170.72C238.39 172.05 240.25 173.62 242.63 174.86C244.99 176.13 247.84 176.97 250.69 177.33C253.54 177.7 256.39 177.59 258.87 177.14C260.11 177.1 259.82 177.22 259.32 177.39C258.82 177.55 258.09 177.71 258.48 177.81C261.94 177.37 264.34 176.76 266.2 176.26C267.13 176 267.93 175.77 268.65 175.52C269.37 175.29 270.01 175.07 270.63 174.82C271.87 174.36 273.01 173.87 274.47 173.18C275.93 172.49 277.69 171.56 280.06 170.08C282.91 168.69 285.65 167.06 288.26 165.22C286.8 166.2 286.09 166.51 286 166.42C285.9 166.32 286.42 165.83 287.26 165.02C288.11 164.22 289.3 163.12 290.56 161.83C291.82 160.55 293.21 159.13 294.56 157.77C292.59 159.2 290.93 160.47 289.82 161.29C292.77 158.51 295.73 155.67 298.77 152.95C299.97 152.07 299.16 153.03 297.82 154.54C298.42 153.96 298.98 153.4 299.42 152.97C302.92 150.33 301.41 152.07 299.26 154.37C298.05 155.24 296.85 156.11 295.68 156.95C293.67 159.23 291.88 161.45 292.6 161.3C293.14 160.72 294.22 159.64 295.46 158.51C294.94 159.11 294.63 159.51 294.94 159.32C295.3 159.1 296.14 158.14 297.54 156.71L300.1 155.44L300.43 154.79C304.56 151.47 308.76 148.26 313.1 145.29C317.45 141.7 321.61 138.4 326.9 135.34C329.55 133.85 332.5 132.39 335.99 131.43C337.73 130.94 339.62 130.63 341.62 130.57C343.62 130.52 345.77 130.79 347.88 131.59C345.69 131.07 345.41 131.33 345.63 131.59C345.85 131.89 346.51 132.34 346.3 132.6C345.3 132.07 343.92 131.8 342.35 131.67C340.77 131.59 338.98 131.79 337.09 132.22C333.31 133.08 329.21 134.97 325.14 137.07C329.44 134.96 328.63 135.76 327.59 136.35C332.34 133.85 337.47 131.86 342.64 131.93C342.55 132.05 342.7 132.15 343.04 132.25C343.38 132.35 343.91 132.41 344.54 132.59C345.82 132.87 347.58 133.42 349.14 134.51C348.89 134.24 348.85 134.09 348.99 134.07C349.14 134.04 349.46 134.14 349.91 134.39C350.84 134.81 352.21 135.9 353.59 137.4C354.94 138.93 356.18 140.96 356.97 143.06C357.78 145.16 358.19 147.28 358.37 148.89C358.21 149.1 358.05 148.82 357.77 147.55C357.44 146.3 357.1 143.97 355.33 140.59C356.18 142.52 356.7 144.15 357.12 145.63C357.54 147.11 357.85 148.45 358.04 149.82C358.38 152.67 358.68 155.67 358.36 160.15C358.36 158.12 358.4 157.02 358.23 156.22C358.53 160.97 358.29 172.58 358 169.85V167.82C357.87 181.32 357.99 208.92 358.84 210.93C358.73 211.07 357.81 209.16 357.64 208.34L360.5 232.43C359.77 230.31 358.03 238.45 357.62 227.26C357.52 230.47 357.39 234.45 357.65 241.23C357.75 239.04 358.71 235.76 358.77 238.76C357.96 246.98 358.33 244.47 357.64 254.61C357.8 251.32 358.94 254.98 358.91 260.17C358.74 259.36 357.78 260.6 357.66 258.7L358.78 271.63C358.58 268.4 357.83 271.06 357.51 273.95C357.73 272.61 357.49 285.13 357.6 288.57L357.86 283.09C357.69 297.69 359.44 297.51 359.38 311.99C359.15 310.24 357.95 307.66 357.81 315.02C358.39 318.39 360.58 329.96 361.02 342.78L360.69 345.24L361.07 355.07C360.2 348.95 358.38 331.77 357.67 322.39C357.41 327.85 357.28 323.91 357.31 332.09C357 334.98 356.84 327.63 356.82 325.22L356.62 344.27C357.29 343.42 357.29 358.84 357.85 358.11L357.15 337.42C357.82 336.58 359.06 349.38 358.94 362.88C358.67 366.31 357.74 360.31 357.52 360.59C357.75 362.34 357.96 373.4 357.8 374.64L357.44 368.92C357.19 376.43 358.33 381.18 357.69 390.21C357.65 393.33 356.82 399.51 357.22 400.05C357.99 394.97 360.36 393.97 360.94 397.36C360.89 398.45 360.21 413.72 359.83 417.28C359.23 422.41 358.4 409.58 357.88 413.95C358.06 414.14 358.29 416.97 358.36 418.15C358.2 421.42 357.79 416.8 357.87 423.91C358.55 425.1 357.81 438.37 358.45 427.27C358.64 434.23 358.31 434.66 358.34 442.83C358.78 440.23 359.84 450.16 360.03 457.13C359.86 456.72 359.63 458.28 359.53 459.04C359.47 473.3 359.16 480.95 359.15 494.25C358.98 495.48 358.79 501.89 358.49 499.16C358.61 501.07 358.84 502.83 358.86 506.93C358.27 514.87 358.77 497.79 358.06 503.84C358.46 504.36 358.61 514.45 358.85 520.29C359.46 518.49 358.97 506.8 358.72 500.95C359.56 500.92 360.45 511.11 360.84 525C361.05 536.04 360.29 529.79 360.41 531.71C360.37 536.9 360.45 540.59 360.57 543.49C360.68 546.4 360.91 548.43 360.91 550.59C360.94 551.12 360.91 551.64 360.85 552.16C360.8 552.68 360.75 553.21 360.7 553.76C360.65 554.31 360.49 554.85 360.38 555.43C360.24 556 360.15 556.62 359.91 557.24C359.69 557.86 359.45 558.52 359.2 559.22C358.89 559.9 358.53 560.61 358.15 561.38C357.76 562.14 357.21 562.89 356.68 563.73C356.1 564.54 355.42 565.36 354.67 566.22C353.33 567.47 352.61 568.04 352.2 568.18C351.82 568.34 351.83 568.16 351.98 567.86C352.3 567.3 352.96 566.17 352.31 566.61C355.39 563.28 357.13 560.2 358.31 557.31C359.46 554.41 360.1 551.64 360.13 548.52C359.98 551.07 359.56 553.6 358.74 556C358.87 555.28 359.11 554.39 359.26 553.38C359.36 552.36 359.6 551.25 359.58 550.11C359.6 549.54 359.63 548.97 359.65 548.41C359.65 547.85 359.65 547.29 359.65 546.76C359.65 545.69 359.68 544.7 359.72 543.88C359.66 544.6 359.61 545.68 359.58 547.06C359.56 547.75 359.56 548.52 359.49 549.34C359.42 550.17 359.42 551.06 359.22 551.99C359.14 552.46 359.06 552.94 358.98 553.43C358.89 553.92 358.73 554.41 358.6 554.92C358.37 555.95 357.96 556.97 357.56 558.03C356.66 560.1 355.53 562.27 353.93 564.2C350.86 568.15 346.28 571.27 341.44 572.71C339.01 573.38 336.56 573.82 334.24 573.74C331.92 573.74 329.7 573.56 327.7 573.47C324.85 573.57 319.94 573.61 322.26 573.9L327.32 573.97C331.96 574.54 317.78 574.3 324.18 574.68C317.38 574.79 309.76 575.05 300.2 574.53L298.42 573.87C298.62 574.05 304.66 574.41 307.35 574.3C303.36 574.46 292.72 573.05 288.33 573.73L295.02 574.35C288.19 574.46 279.75 574.87 271.28 574.44C275.12 575.16 273.24 574.43 279.23 575.31C274.04 574.28 300.9 575.97 292.54 574.8C298.69 575.8 303.22 575.45 311.28 576.39C311.04 576.18 308.43 575.92 315.54 576.22C315.86 576.17 316.62 576.12 317.11 576.09C317.33 576.1 317.4 576.11 317.59 576.12C317.45 576.11 317.34 576.1 317.2 576.08C317.51 576.06 317.54 576.05 317.05 576.07C315.36 575.93 313.99 575.79 313.44 575.66C316.98 575.3 328.29 575.64 332.12 575.5C333.16 575.56 333.61 575.58 333.69 575.6C333.76 575.63 333.46 575.67 333.11 575.71C332.43 575.76 331.5 575.82 332.65 575.97C333.6 575.94 334.67 575.82 335.67 575.75C336.68 575.64 337.68 575.4 338.67 575.23C339 575.4 341.99 574.96 343.55 574.49C344.35 574.32 344.78 574.17 344.42 574.42C344.24 574.54 343.83 574.7 343.16 574.97C342.82 575.1 342.41 575.26 341.93 575.44C341.45 575.62 340.86 575.74 340.2 575.92C343.41 575.2 346.49 573.93 349.26 572.16C351.76 570.68 354.46 568.42 356.52 565.76C358.59 563.11 360.09 560.15 360.75 557.75C360.99 557.21 361.15 556.61 361.3 555.99C361.45 555.37 361.62 554.75 361.73 554.13C361.87 552.87 362.08 551.69 362.05 550.76C362.05 548.91 362.03 548.15 362.1 550.18C362.12 549.54 362.15 548.87 362.15 548.27L362.12 546.52L362.05 543.01L361.91 535.99L362.02 535.86C362.08 522.01 361.28 507.35 362.09 491.51C361.98 486.85 361.84 482.03 361.97 474.23L362.36 472.71C362.22 466.72 362.75 454.73 362.34 452.16C363.39 445.7 362.57 423.1 362.75 412.57L362.24 412.17C362.27 404.92 362.12 397.97 361.92 388.97L361.47 389.52C361.1 381.76 361.79 369.58 361.74 357.31C361.91 358.14 361.87 361.26 361.76 363.46C362.77 348.8 361.02 332.53 361.76 319.24C361.6 315.93 361.65 313.53 361.76 311.21C361.76 311.52 361.76 311.79 361.78 312.03C361.78 311.69 361.78 311.19 361.78 310.67C361.86 309.21 361.93 307.7 362.02 306.07C361.91 307.46 361.82 308.79 361.78 309.94C361.78 307.39 361.72 303.51 361.6 299.71L362.08 298.09C362.08 297.78 362.08 297.53 362.07 297.21C362.25 293.48 361.84 294.21 361.48 296.2C361.4 294.29 361.31 292.54 361.19 291.18C361.97 288.15 360.93 281.21 361.76 277.08C361.36 274.52 361.46 257.98 360.61 255.96C360.72 255.83 360.77 254.71 360.78 256.76C360.88 252.53 360.97 248.29 360.73 244.5L361.34 242.7L360.52 233.45C360.89 227.83 361.11 225.5 361.58 231.08C360.86 217.61 361.31 220.15 360.59 208.7L360.99 209.26C360.97 205.17 360.44 198.62 360.77 196.15C361.15 191.57 361.17 180.24 361.19 167.12C361.19 163.84 361.2 160.45 361.21 157.02C361.21 155.31 361.22 153.58 361.23 151.86V150.57C361.23 150.12 361.23 149.65 361.2 149.19C361.16 148.27 361.06 147.35 360.92 146.44C360.35 142.81 358.94 139.33 356.87 136.44C356.34 135.73 355.8 135.02 355.2 134.4C354.9 134.08 354.6 133.77 354.3 133.46C354 133.15 353.65 132.88 353.33 132.59C352.7 132 351.96 131.54 351.28 131.04C350.92 130.82 350.55 130.61 350.18 130.4C349.82 130.18 349.45 129.99 349.06 129.83C349.6 130.2 349.8 130.44 349.78 130.5C349.76 130.57 349.53 130.46 349.1 130.3C348.26 129.97 346.71 129.23 344.85 128.88C343.01 128.49 340.93 128.34 339.3 128.5C337.67 128.64 336.48 128.94 336.29 129.22C335.92 129.22 335.43 129.27 334.96 129.31C334.5 129.38 334.06 129.44 333.78 129.46C333.23 129.51 333.32 129.35 335.27 128.74C332.14 129.53 329.58 130.55 327.31 131.54C325.04 132.54 323.06 133.52 321.25 134.54C317.62 136.56 314.56 138.59 311.37 141.34C310.07 141.92 313.27 139.51 312.16 140.09C311.38 140.69 309.15 142.54 308.05 143.18C306.96 143.79 309.33 141.92 310.83 140.69C305.8 144.38 303.32 146.75 301.98 148.22C300.66 149.72 300.51 150.38 300.42 150.97C295.4 154.7 293.12 156.84 290.14 160.23C289.26 160.84 288.1 161.66 287.85 161.7C287.73 161.72 287.85 161.56 288.35 161.1C288.84 160.61 289.68 159.84 291.09 158.53C290.26 159.25 288.7 160.68 286.66 162.27C284.61 163.86 282.07 165.57 279.51 167.01C276.95 168.46 274.38 169.64 272.44 170.48C270.49 171.3 269.17 171.8 269.12 171.99C268.47 172.11 267.08 172.53 265.68 172.87C264.3 173.24 262.92 173.54 262.38 173.67C257.75 174.43 255.19 174.42 252.71 174.29C252.09 174.24 251.47 174.22 250.83 174.12C250.18 174.05 249.51 173.95 248.79 173.8C247.35 173.5 245.66 173.09 243.66 172.16C244.01 172.37 244.39 172.53 244.76 172.7C245.13 172.88 245.51 173.04 245.9 173.17C244.11 172.97 242.32 172.22 240.43 170.82C239.94 170.49 239.51 170.05 239.01 169.64C238.56 169.17 238.05 168.72 237.59 168.16C236.62 167.08 235.68 165.77 234.75 164.19L234.92 164.33C233.94 162.48 233.32 160.9 232.9 159.59C232.67 158.94 232.5 158.34 232.35 157.82C232.19 157.29 232.07 156.82 231.97 156.4C231.75 155.56 231.6 154.91 231.48 154.37C231.36 153.82 231.24 153.39 231.16 152.94C230.98 152.05 230.8 151.17 230.62 149.45C230.46 147.73 230.26 145.16 230.41 140.92L229.93 141.85C229.68 141.46 229.56 140.31 229.6 138.66C229.63 137 229.8 134.88 230.35 132.57C231.37 127.91 234.1 122.81 237.06 119.03C236.25 119.86 235.5 120.76 234.77 121.68C235.42 120.52 236.41 119.25 237.63 118.04C238.87 116.82 240.32 115.73 241.9 114.7C245.11 112.59 248.35 110.53 250.51 108.84C251.49 108.15 249.15 110.15 247.9 111.26C259.36 102.61 248.94 109.59 257.1 102.69C258.84 101.7 255.69 104.97 261.28 100.45C262.75 99.42 266.6 95.89 271.09 91.9C271.65 91.4 272.22 90.9 272.8 90.39L273.67 89.62L274.11 89.24L274.4 88.99C274.52 88.9 274.63 88.79 274.72 88.67L276.29 86.78C276.8 86.17 277.31 85.58 277.79 84.96C278.76 83.74 279.73 82.57 280.61 81.4C281.06 80.83 281.5 80.28 281.92 79.74C282.34 79.2 282.74 78.67 283.12 78.17C282.38 79.01 281.65 79.85 281.43 79.92C281.22 80.01 281.56 79.36 282.91 77.22C285.04 73.99 287.96 69.59 290.08 64.8C292.22 60.04 293.51 54.93 293.51 51.33C293.69 50.34 293.78 49.96 293.85 49.93C294.06 46.91 293.99 41.94 293.02 37.43C292.1 32.91 290.46 28.95 289.59 27.38C289.45 25.96 288.42 23.09 286.61 19.83C284.81 16.55 282.23 12.91 279.52 9.64003C278.17 8.00003 276.8 6.44003 275.5 5.03003C275.13 4.62003 274.76 4.23003 274.41 3.84003C274.2 3.61003 274 3.39003 273.8 3.17003C273.72 3.02003 273.53 3.07003 273.4 3.03003L272.97 2.96003C272.02 2.81003 271.13 2.66003 270.31 2.53003C267.38 2.04003 265.49 1.68003 265.58 1.29003C259.6 0.500025 253.55 0.0600255 247.48 0.130026L247.96 -0.0299745C242.12 -0.0599745 238.15 0.500026 235.19 1.09003C234.45 1.26003 233.77 1.41003 233.13 1.56003C232.5 1.72003 231.91 1.91003 231.36 2.08003C230.25 2.40003 229.28 2.78003 228.31 3.16003C226.99 3.48003 226.8 3.52003 226.96 3.39003C227.11 3.26003 227.63 3.06003 227.73 2.99003C223.57 4.19003 220.48 5.69003 218.04 7.21003C215.61 8.75002 213.76 10.24 212.24 11.91C210.67 13.54 209.39 15.32 208.16 17.52C206.92 19.71 205.86 22.41 205.02 25.92C204.72 26.36 204.4 26.79 204.14 27.25C204.07 27.74 203.92 28.49 203.7 29.45C203.54 30.42 203.32 31.62 203.13 33C202.76 35.77 202.56 39.29 202.69 43.19C202.74 44.15 202.79 45.14 202.84 46.15C202.9 47.07 202.9 48.02 202.84 48.97C202.74 50.87 202.41 52.81 201.84 54.69C201.56 55.63 201.22 56.55 200.81 57.45C200.41 58.35 199.96 59.19 199.41 60.12C198.36 61.94 197.37 63.76 196.29 65.48C196.33 65.32 196.43 64.98 197.07 63.87C194.77 67.78 191.88 71.86 188.69 75.75C185.44 79.6 181.99 83.32 178.55 86.55C171.76 93.1 165.4 97.94 163.27 100.66L160.93 102.56L158.53 104.39C156.94 105.63 155.3 106.8 153.65 107.96C166.67 99.27 152.19 109.97 157.68 106.58C152.64 110.2 143.87 114.63 150.31 110.62L151.37 110.08C151.84 109.52 151.02 109.86 149.54 110.66C148.07 111.49 145.89 112.72 143.64 113.99C141.41 115.28 139.05 116.5 137.28 117.39C135.52 118.29 134.3 118.8 134.32 118.61C127.48 122.13 120.47 125.22 113.4 128.01C106.33 130.78 99.2105 133.31 92.0505 135.51C84.8905 137.71 77.7505 139.75 70.6005 141.5C67.0405 142.43 63.4605 143.22 59.9105 144.07C56.3405 144.83 52.8105 145.67 49.2605 146.37L52.6705 146.41C49.3705 147.08 46.0805 147.77 42.7705 148.4C40.1305 148.71 39.1805 148.54 46.2405 147.15C42.4605 147.51 34.4605 149.78 34.2705 149.96C20.3305 152.08 39.5505 148.18 35.2805 148.9L29.5105 149.96L30.8305 149.82C28.5105 150.37 27.2705 150.77 25.5205 151.15C24.6505 151.35 23.6605 151.55 22.3405 151.79C21.0105 152.02 19.3705 152.3 17.2105 152.66C14.2605 153.19 13.5405 153.56 13.2005 153.55C12.8705 153.6 12.9505 153.4 11.8605 153.95C11.8605 153.92 11.6705 154 11.1605 154.25C10.9005 154.36 10.5905 154.58 10.1805 154.84C9.76047 155.09 9.27047 155.42 8.71047 155.89C4.90047 158.73 2.15047 162.96 1.11047 167.62C1.70047 165.8 2.55047 164.09 3.62047 162.56C2.91047 163.93 2.42047 165.44 2.02047 166.78C1.88047 167.47 1.71047 168.11 1.63047 168.69C1.56047 169.27 1.50047 169.79 1.45047 170.2C1.42047 171.04 1.44047 171.49 1.51047 171.34C1.60047 171.19 1.67047 170.42 2.08047 168.91C1.76047 169.98 1.56047 171.74 1.51047 173.59C1.43047 175.49 1.37047 177.74 1.33047 180.22C1.24047 185.17 1.22047 191.01 1.22047 196.75C1.22047 208.23 1.30047 219.29 1.14047 221.94C1.56047 229.86 1.55047 237.67 1.50047 247.36C1.62047 244.95 2.27047 243.51 2.19047 251.86C0.850469 248.81 1.61047 267.15 0.640469 273.9C1.28047 267.87 0.800469 297.64 1.71047 288.18C1.60047 295.15 1.21047 288.6 0.890469 293.89C1.41047 310.47 0.550469 330.44 0.730469 350.94C0.910469 351.26 1.17047 347.83 1.44047 352.22L0.560469 363.04C0.650469 367.09 1.58047 366.77 0.960469 374.16C1.11047 373.12 1.33047 371.56 1.39047 374.27C0.530469 414.43 2.09047 456.33 0.480469 497.12C0.820469 491.6 0.850469 495.28 0.870469 499.5C0.950469 496.76 1.30047 499.56 1.54047 499.02L0.880469 516.09C1.54047 519.2 0.920469 534.4 1.56047 536.18L1.45047 530.77C2.20047 537.96 3.11047 520.71 4.07047 521.76C3.22047 513.71 5.33047 500.53 4.11047 487.32C4.31047 484.4 4.42047 489.81 4.64047 488.25C4.23047 484.9 4.14047 480.86 4.33047 473.36L4.43047 474.21C4.33047 453.16 4.73047 444.13 5.00047 420.48L4.53047 422.23C4.59047 417.15 4.74047 416.08 4.86047 413.7C4.14047 407.87 4.82047 427.97 4.03047 422.66C4.99047 415.92 4.04047 386.82 5.14047 382.26C5.14047 374.44 4.59047 384.55 4.60047 376.74L4.90047 374.67L4.52047 372.69C4.58047 367.56 4.95047 364.98 5.20047 364.79C5.17047 366.03 5.27047 368.33 5.29047 369.66C5.64047 363.01 5.17047 350.92 5.29047 348.63L5.11047 356.14C4.83047 334.8 5.22047 308.75 4.62047 288.13L4.40047 289.7C3.99047 273.96 4.65047 277.09 4.45047 259.81L4.50047 260.44C4.28047 256.98 4.16047 252.36 4.19047 247.63C4.45047 251.99 4.70047 239.42 4.99047 245.14C4.55047 228.07 4.64047 236.7 3.81047 225.42L4.18047 222.82C3.84047 218.98 3.67047 218.66 3.57047 210.02C3.89047 217.1 4.14047 204.51 4.56047 212.44C5.37047 194.33 3.74047 185.54 4.93047 177.23C3.90047 168.91 4.36047 192.91 4.14047 188.25C3.80047 192.15 3.37047 181.38 3.48047 175.7C3.50047 174.26 3.55047 172.89 3.72047 171.52C3.85047 170.17 4.25047 168.78 4.84047 167.24C5.45047 165.71 6.35047 164.02 7.81047 162.26C9.26047 160.52 11.2805 158.67 14.2305 157.29C13.6505 157.58 13.3505 157.75 13.0605 157.92C12.7705 158.11 12.5005 158.31 11.9505 158.65C14.0505 157.44 16.1805 156.48 18.7305 156.04C21.5205 155.53 24.4605 155.02 27.8005 154.69C31.4005 153.43 36.3905 153.25 37.3005 152.25C35.1105 152.7 32.9205 153.09 30.7305 153.51C28.5405 153.93 26.3405 154.33 24.1405 154.7C31.6005 153.28 38.4405 151.2 50.7505 149.08C49.8305 149.43 46.2305 150.41 43.7505 151.01C47.3805 150.52 50.6205 149.47 54.3705 148.89C53.9305 149.42 49.9505 150.28 45.1105 151.3C40.2505 152.27 34.5205 153.34 30.5605 154.3C34.5005 154.01 45.6005 150.95 41.7405 152.56C47.3005 150.4 55.9005 149.89 65.3405 146.73L64.8205 147.35C66.3305 146.91 69.4305 145.94 72.2205 145.2C70.5905 145.84 68.9605 146.49 67.3105 147.09C74.9605 144.63 82.4105 143.65 89.7005 141.06C85.8405 142.25 83.6805 142.86 82.5005 143.11C81.3305 143.38 81.1505 143.35 81.2505 143.22C81.4505 142.97 82.7505 142.36 79.4305 143.12C84.1705 141.64 87.2205 140.69 89.4905 140.08C91.7705 139.49 93.2405 139.16 94.8005 138.84C96.3505 138.51 98.0005 138.22 100.54 137.46C101.81 137.08 103.32 136.61 105.16 135.99C107 135.36 109.16 134.53 111.76 133.52C110.36 134.09 107.68 135.02 105.89 135.58C104.09 136.1 103.2 136.26 105.39 135.38C107.4 134.69 109.73 133.9 111.87 133.16C114.01 132.42 115.95 131.73 117.21 131.36C130.8 125.47 114.95 131.84 120.62 129.08C125.47 127.61 127.19 125.97 132.92 122.97L133.17 123.38C136.99 121.6 139.08 120.43 140.32 119.68C141.56 118.93 141.95 118.59 142.29 118.27C142.63 117.95 142.92 117.64 143.96 116.97C144.48 116.64 145.19 116.21 146.18 115.64C147.18 115.09 148.45 114.35 150.08 113.39C148.39 114.72 146.64 115.97 144.89 117.22L148.28 115.17L151.61 113.03L150.5 114.35C157.62 109.44 159.91 108.04 166.77 103.06C164.98 103.96 167.2 101.79 172.89 96.96C174.9 95.39 174.44 95.95 174.47 96.02C174.48 96.06 174.62 95.97 175.25 95.43C175.56 95.16 176.01 94.79 176.61 94.24C177.2 93.68 177.95 92.97 178.91 92.05C178.13 92.97 177.35 93.99 176.25 95.06C175.14 96.12 173.78 97.33 171.86 98.65C171.59 99.07 170.21 100.38 169.93 100.81C172.2 99.23 174.84 96.96 177.27 94.77C178.45 93.64 179.59 92.54 180.61 91.56C181.63 90.57 182.47 89.65 183.15 88.96C182.09 90.01 180.83 91.27 180.1 91.83C183.64 88.07 187.06 84.2 190.14 80.08C191.84 78.34 190.72 79.9 189.59 81.46C191.59 79.04 192.77 77.21 195.48 73.5C195.1 74.7 195.64 74.74 191.7 79.99C194.69 76.06 197.55 72.02 200.07 67.78C200.82 67.09 204.42 61.53 203.57 63.26C203.84 62.82 204.12 62.37 204.41 61.91C204.69 61.42 205.01 60.86 205.27 60.29C205.82 59.15 206.3 57.93 206.68 56.63C207.45 54.04 207.83 51.17 207.76 48.24C207.66 45.14 207.15 42.8 207.15 40.14C207.07 38.84 207.15 37.54 207.18 36.25C207.2 35.6 207.29 34.97 207.35 34.34C207.42 33.71 207.47 33.07 207.6 32.46C207.63 31.94 207.61 30.87 208.06 28.8C208.28 27.64 208.7 26.57 209.02 25.48C209.46 24.44 209.81 23.37 210.35 22.4C211.3 20.39 212.54 18.56 213.96 16.85C215.37 15.12 217.06 13.56 219.01 12.13C220.96 10.71 223.14 9.35003 225.68 8.21003C226.69 7.92003 227.74 7.70003 228.76 7.47003C229.82 7.31003 230.83 7.07002 231.9 6.97003C234.01 6.42002 234.56 6.27003 234.38 6.21003C234.19 6.13003 233.3 6.21003 232.57 6.26003C231.85 6.31003 231.3 6.31003 231.83 6.08003C232.09 5.96003 232.63 5.79003 233.55 5.53003C234.01 5.41003 234.58 5.30002 235.26 5.16003C235.94 5.02003 236.73 4.85003 237.66 4.74003C242.92 3.99003 243.96 4.25003 244.09 4.42003C244.23 4.62003 243.51 4.90003 245.37 4.92003C248 4.68003 251.64 4.38003 255.87 4.55003C260.1 4.69003 264.9 5.21003 269.76 6.29003C266.5 5.89003 263.96 5.46003 260.91 5.16003L260.97 5.17003ZM264.55 91.43C266.2 89.94 269.42 86.89 270.85 86.07C269.25 88.1 267.57 89.14 264.55 91.43ZM308.04 147.73C306.84 148.87 304.8 150.37 302.48 152.08C304.05 150.71 305.9 149.24 308.04 147.73ZM354.82 567.07C354.88 566.99 354.93 566.93 354.98 566.86C356.77 564.84 357.26 564.1 357.11 564.33C357.04 564.45 356.76 564.77 356.37 565.26C355.96 565.73 355.5 566.42 354.82 567.07ZM345.81 573.55C344.82 574.08 344.91 574.11 345.37 573.97C346.03 573.54 348.33 572.5 350.62 570.77C350.26 570.95 349.78 571.24 349.05 571.72C348.67 571.94 348.22 572.19 347.69 572.5C347.17 572.82 346.56 573.19 345.8 573.54L345.81 573.55ZM10.9205 154.68C11.5805 154.35 12.2605 154.06 12.9505 153.79C10.7205 154.9 10.0505 155.51 9.92047 155.5C9.82047 155.53 10.3705 155.1 10.9205 154.68Z" fill="#E37C4A"/>
<path d="M293.46 160.92C292.94 161.28 292.75 161.33 292.58 161.36C291.99 162 292.04 162.08 293.46 160.92Z" fill="#E37C4A"/>
<path d="M207.73 32.16L207.67 32.48C207.67 32.66 207.69 32.76 207.71 32.82L207.73 32.16Z" fill="#E37C4A"/>
<path d="M357.62 418.1C357.69 415.98 357.78 414.8 357.87 414.02C357.75 413.9 357.65 414.87 357.62 418.1Z" fill="#E37C4A"/>
<path d="M290.7 575.82L297.29 575.88C294.1 575.81 292.97 575.67 291.36 575.55C291.5 575.67 292.76 575.87 290.7 575.81V575.82Z" fill="#E37C4A"/>
<path d="M233.63 571.2C232.67 571.23 231.59 571.15 230.64 571.18L230.9 571.41C235 571.51 237.87 571.41 233.64 571.2H233.63Z" fill="#E37C4A"/>
<path d="M284.65 574.05C284.14 573.63 280 573.65 275.39 573.59C275.67 573.59 275.93 573.61 276.21 573.61C274.83 574.14 279.76 574.09 284.65 574.04V574.05Z" fill="#E37C4A"/>
<path d="M274.32 573.57C272.9 573.55 271.45 573.52 270.06 573.46C269.51 573.67 271.79 573.56 274.32 573.57Z" fill="#E37C4A"/>
<path d="M332.16 576.46C329.98 576.29 330.77 576.94 329.54 576.74C328.93 576.85 329.54 576.89 330.6 576.89C331.68 576.89 333.13 576.89 334.55 576.73C335.23 576.66 335.82 576.61 336.22 576.54C336.62 576.45 336.83 576.38 336.76 576.36C336.69 576.32 336.34 576.41 335.59 576.4C335.22 576.41 334.74 576.42 334.16 576.44C333.87 576.45 333.55 576.46 333.2 576.47C332.88 576.47 332.53 576.47 332.16 576.47V576.46Z" fill="#E37C4A"/>
<path d="M280.96 572.6L282.6 573.15L285.19 572.82L280.96 572.6Z" fill="#E37C4A"/>
<path d="M317.37 574.01L310 573.66C310.11 573.75 309.17 573.77 308.02 573.77C312.56 573.92 317.54 574.16 317.37 574.01Z" fill="#E37C4A"/>
<path d="M308.02 573.78C305.65 573.7 303.4 573.65 302.09 573.69C303.37 573.72 306.12 573.78 308.02 573.78Z" fill="#E37C4A"/>
<path d="M291.04 572.74L293.21 572.91L298.42 573.09L291.04 572.74Z" fill="#E37C4A"/>
<path d="M360.06 526.05L359.92 518C359.75 517.18 359.64 519.37 359.71 522.37C359.83 524.3 359.9 527.28 360.06 526.05Z" fill="#E37C4A"/>
<path d="M358.59 550.32C358.82 548.24 358.9 548.06 359.07 546.84L358.45 546.6L358.57 548.5L358.6 550.33L358.59 550.32Z" fill="#E37C4A"/>
<path d="M358.54 526.92C358.37 526.12 358.05 515.24 358.08 525.44C358.25 526.26 358.39 534.32 358.54 526.92Z" fill="#E37C4A"/>
<path d="M359.33 405.66L359.34 407.71L360.35 407.41L359.33 405.66Z" fill="#E37C4A"/>
<path d="M356.89 298.78C356.65 308.32 357.52 301.04 357.21 309.66C357.45 311.9 357.46 302.62 357.67 304.91C357.42 299.15 357.56 296.13 356.89 298.78Z" fill="#E37C4A"/>
<path d="M357.67 304.92C357.72 305.84 357.77 306.82 357.82 307.86C357.76 306.19 357.71 305.41 357.67 304.92Z" fill="#E37C4A"/>
<path d="M0.440469 527.51L0.230469 533.65L0.570469 529.69L0.440469 527.51Z" fill="#E37C4A"/>
<path d="M1.1998 539.29L0.549805 540.73L1.1398 544.41C1.1098 543.02 1.0598 540.34 1.1998 539.28V539.29Z" fill="#E37C4A"/>
<path d="M250.56 101.25L250.3 101.67C251.14 101.2 252.26 100.29 254.49 98.49L250.56 101.26V101.25Z" fill="#E37C4A"/>
<path d="M288.12 36.3401L288.37 37.6601C288.41 36.8001 288.43 35.9401 288.39 35.0701L288.12 36.3401Z" fill="#E37C4A"/>
<path d="M240.29 6.08998C242.98 5.84998 246.19 5.59998 248.95 5.63998C242.98 5.72998 239.5 5.46998 240.29 6.08998Z" fill="#E37C4A"/>
</g>
<path d="M248.75 61.22C256.548 61.22 262.87 54.8982 262.87 47.1C262.87 39.3017 256.548 32.98 248.75 32.98C240.952 32.98 234.63 39.3017 234.63 47.1C234.63 54.8982 240.952 61.22 248.75 61.22Z" fill="#FAF9F5"/>
<path d="M265.3 46.9801C265.27 47.1301 265.69 47.0801 265.76 47.1001C265.66 46.8401 265.19 46.9901 265.3 46.9801Z" fill="#E37C4A"/>
<path d="M264.14 44.61L264.31 44.63L263.85 44.35L264.14 44.61Z" fill="#E37C4A"/>
<path d="M263.65 42.4301C263.02 42.8401 263.96 43.1801 263.82 43.6301L263.68 43.7301L264.29 43.7801C264.08 43.3101 263.56 42.8101 263.66 42.4301H263.65Z" fill="#E37C4A"/>
<path d="M264.67 40.74C264.44 40.92 264.35 40.56 264.69 41.06C264.71 41.02 264.72 41.01 264.74 40.98C264.72 40.93 264.69 40.86 264.67 40.74Z" fill="#E37C4A"/>
<path d="M264.75 40.98C264.86 41.22 264.91 40.74 264.75 40.98V40.98Z" fill="#E37C4A"/>
<path d="M264.14 39.95L264.51 40.15C264.63 40.02 264.53 39.72 264.69 39.78C264.41 39.51 264.3 39.66 264.14 39.95Z" fill="#E37C4A"/>
<path d="M263.53 39.89L263.7 40C263.75 39.94 263.75 39.89 263.53 39.89Z" fill="#E37C4A"/>
<path d="M264.06 40.23L263.7 39.99C263.62 40.08 263.41 40.18 263.84 40.11C263.64 40.17 263.85 40.15 264.05 40.23H264.06Z" fill="#E37C4A"/>
<path d="M264.05 40.46C263.99 40.69 263.98 40.95 263.63 40.74C263.94 41.28 264.39 41.01 264.05 40.46Z" fill="#E37C4A"/>
<path d="M262.91 42.55C262.87 42.64 262.83 42.73 262.78 42.82L263.06 42.94C262.93 42.88 263.13 42.47 262.91 42.55Z" fill="#E37C4A"/>
<path d="M263.45 37.91C263.31 37.97 263.17 38.22 263.01 38.34L263.29 38.46C263.31 38.3 263.27 38.04 263.45 37.9V37.91Z" fill="#E37C4A"/>
<path d="M263.01 38.34L262.6 38.17C262.74 38.46 262.88 38.45 263.01 38.34Z" fill="#E37C4A"/>
<path d="M262.79 40.19L263.54 40.47L262.74 40.09L262.79 40.19Z" fill="#E37C4A"/>
<path d="M262.64 36.7L263.05 36.67H262.4L262.64 36.7Z" fill="#E37C4A"/>
<path d="M262 35.98C262.33 35.91 262.23 35.5 262.48 35.51C262.26 35.34 261.92 35.34 261.61 35.34C261.85 35.41 261.98 35.61 262 35.98Z" fill="#E37C4A"/>
<path d="M261.15 35.31C261.27 35.34 261.44 35.34 261.62 35.34C261.49 35.3 261.35 35.28 261.15 35.31Z" fill="#E37C4A"/>
<path d="M262.32 37.62C262.38 37.54 262.54 37.36 262.5 37.14L262.24 37.51C262.24 37.51 262.29 37.59 262.32 37.63V37.62Z" fill="#E37C4A"/>
<path d="M262.23 37.51C262.15 37.37 262.09 37.28 262.06 37.24C262.08 37.27 262.13 37.36 262.22 37.51H262.23Z" fill="#E37C4A"/>
<path d="M262.34 37.65L262.32 37.62C262.32 37.62 262.29 37.67 262.34 37.65Z" fill="#E37C4A"/>
<path d="M262.71 39.2C262.39 39.14 261.96 38.92 261.85 39.45C262.18 39.43 262.23 39.12 262.71 39.2Z" fill="#E37C4A"/>
<path d="M262 38.09C262.05 38.21 262.08 38.34 262.12 38.46C262.21 38.39 262.31 38.24 262.47 38.27C262.31 38.21 262.17 38.14 262.01 38.09H262Z" fill="#E37C4A"/>
<path d="M261.78 38.02L262 38.09L261.95 37.96L261.78 38.02Z" fill="#E37C4A"/>
<path d="M261.31 36.0799C261.06 36.0799 260.92 35.9599 260.76 35.8199C260.85 36.0399 260.96 36.2399 261.11 36.3899C261.23 36.3199 261.48 36.2399 261.31 36.0699V36.0799Z" fill="#E37C4A"/>
<path d="M261.75 36.78H261.71C261.71 36.78 261.7 36.83 261.75 36.78Z" fill="#E37C4A"/>
<path d="M259.31 34.4301C259.31 34.4301 259.29 34.4801 259.28 34.5101L259.33 34.4601L259.3 34.4301H259.31Z" fill="#E37C4A"/>
<path d="M261.08 36.48C261.13 36.65 261.27 36.66 261.44 36.64C261.32 36.58 261.22 36.5 261.12 36.4C261.07 36.43 261.03 36.45 261.08 36.48Z" fill="#E37C4A"/>
<path d="M260.6 35.03C260.6 35.15 260.62 35.27 260.64 35.4C260.68 35.24 260.7 34.97 260.6 35.03Z" fill="#E37C4A"/>
<path d="M261.77 36.6501C261.77 36.6501 261.79 36.6501 261.8 36.6501C261.84 36.5501 261.8 36.5801 261.77 36.6501Z" fill="#E37C4A"/>
<path d="M261.77 36.65C261.67 36.62 261.55 36.63 261.43 36.64C261.52 36.7 261.61 36.74 261.71 36.77C261.72 36.73 261.74 36.69 261.77 36.65Z" fill="#E37C4A"/>
<path d="M257.14 36.22C257.39 35.92 257.95 35.85 257.9 36.4C258.33 36.39 259.05 35.28 259.27 34.5C259.15 34.63 259.05 34.74 258.61 34.7C258.59 34.94 258.89 35.6 258.44 35.68C257.97 35.53 258.24 35.34 258.19 35.03C258.03 35.53 257.29 35.25 256.94 35.9L257.39 35.92C257.33 36.01 257.11 36.08 257.13 36.22H257.14Z" fill="#E37C4A"/>
<path d="M259.79 35.02L259.94 35.09C259.86 34.92 259.87 34.72 259.89 34.32C259.56 34.29 259.43 34.37 259.33 34.45L259.86 35.01H259.78L259.79 35.02Z" fill="#E37C4A"/>
<path d="M260.44 35.57C260.05 35.78 259.66 35.68 259.49 36.15C259.82 36.43 259.95 36.11 260.27 36.17C259.71 35.72 260.58 36.16 260.41 35.6C260.56 35.65 260.66 35.74 260.76 35.81C260.71 35.68 260.67 35.54 260.64 35.39V35.42C260.62 35.49 260.61 35.52 260.6 35.47H260.58C260.53 35.51 260.49 35.53 260.44 35.56C260.36 35.34 260.5 35.46 260.58 35.47L260.63 35.43C260.41 35.29 260.16 35.19 259.93 35.08C260 35.23 260.16 35.34 260.44 35.56V35.57Z" fill="#E37C4A"/>
<path d="M260.88 39.62C260.88 39.62 260.93 39.57 260.95 39.55C260.88 39.55 260.84 39.55 260.88 39.62Z" fill="#E37C4A"/>
<path d="M260.96 39.25C261.04 39.25 261.2 39.2 261.25 39.36C261.21 39.54 261.07 39.47 260.96 39.55C261.1 39.57 261.39 39.67 261.42 39.31H261.35C261.34 39 261.6 38.39 261.67 38.4C261.39 38.69 261.2 38.9 260.97 39.26L260.96 39.25Z" fill="#E37C4A"/>
<path d="M260.73 37.4899C260.57 37.3799 260.38 37.2799 260.2 37.1899L260.11 37.6399L260.27 37.4899C260.41 37.7899 260.57 37.5699 260.73 37.4899Z" fill="#E37C4A"/>
<path d="M259.39 34.2201L259.74 33.9301C259.51 34.0101 259.28 34.1101 259.05 34.2001L259.39 34.2201Z" fill="#E37C4A"/>
<path d="M258.71 33.77L258.97 33.47L258.65 33.53L258.71 33.77Z" fill="#E37C4A"/>
<path d="M238.66 53.0801L238.82 53.1301C238.76 53.1001 238.71 53.0801 238.66 53.0801Z" fill="#E37C4A"/>
<path d="M238.24 52.24L238.05 52.3C238.17 52.3 238.24 52.27 238.24 52.24Z" fill="#E37C4A"/>
<path d="M240.02 32.9899C239.6 32.8099 239.02 32.4999 239.29 32.8499L239.6 33.1699C239.72 33.0099 239.87 32.9699 240.02 32.9899Z" fill="#E37C4A"/>
<path d="M235.01 44.3399C235.01 44.3399 235.1 44.3099 235.15 44.2999C235.02 44.2199 234.9 44.1399 234.78 44.0699C234.85 44.1499 234.93 44.2499 235.01 44.3399Z" fill="#E37C4A"/>
<path d="M236.75 44.83L236.44 45.04C236.55 45 236.65 44.93 236.75 44.83Z" fill="#E37C4A"/>
<path d="M242.37 56.41L242.73 56.13C242.55 56.01 242.5 56.24 242.37 56.41Z" fill="#E37C4A"/>
<path d="M251.1 30.79C250.9 30.59 250.72 30.49 250.56 30.45C250.81 30.74 250.97 31.14 251.1 30.79Z" fill="#E37C4A"/>
<path d="M234.43 54.99C234.56 55.05 234.66 55.04 234.74 54.99C234.62 54.93 234.51 54.92 234.43 54.99Z" fill="#E37C4A"/>
<path d="M249.89 30.3999C249.89 30.3999 249.97 30.4699 250 30.5099C250.17 30.4499 250.35 30.3899 250.55 30.4499C250.37 30.2399 250.13 30.1199 249.88 30.4099L249.89 30.3999Z" fill="#E37C4A"/>
<path d="M258.41 53.61C258.41 53.61 258.45 53.61 258.47 53.61C258.42 53.57 258.41 53.59 258.41 53.61Z" fill="#E37C4A"/>
<path d="M264.62 49.23C264.64 49.31 264.62 49.42 264.61 49.53C264.65 49.48 264.66 49.39 264.62 49.23Z" fill="#E37C4A"/>
<path d="M256.01 31.91C256.06 31.88 256.18 31.96 256.01 31.91V31.91Z" fill="#E37C4A"/>
<path d="M255.95 33.79C255.9 33.82 255.84 33.86 255.79 33.95C255.85 33.86 255.9 33.81 255.95 33.79Z" fill="#E37C4A"/>
<path d="M248.27 33.0699H248.26C248.31 33.1499 248.3 33.1399 248.27 33.0699Z" fill="#E37C4A"/>
<path d="M256.15 32.2C256.12 32.12 256.07 32.05 256.01 31.99C256.03 32.04 256.07 32.1 256.15 32.2Z" fill="#E37C4A"/>
<path d="M256.21 32.01C256.21 32.01 256.29 32.08 256.33 32.11C256.38 32.06 256.39 32.01 256.21 32.01Z" fill="#E37C4A"/>
<path d="M255.78 31.83C255.87 31.87 255.95 31.93 256.01 31.99C255.99 31.95 255.99 31.92 256.01 31.91C255.96 31.89 255.89 31.87 255.78 31.83Z" fill="#E37C4A"/>
<path d="M250.43 59.7799C250.43 59.7799 250.45 59.7999 250.46 59.8199C250.57 59.6199 250.51 59.6599 250.43 59.7799Z" fill="#E37C4A"/>
<path d="M239.89 38.88V38.86H239.87L239.9 38.88H239.89Z" fill="#E37C4A"/>
<path d="M239.83 39.42C239.55 38.93 239.68 38.88 239.86 38.86L238.83 38.13C239.15 38.57 239.49 39 239.83 39.42Z" fill="#E37C4A"/>
<path d="M240.07 54.8L240.16 54.33C240.89 54.17 240.87 54.48 241.11 53.93C240.6 54.37 240.36 54.2 240.17 53.99C239.98 53.79 239.78 53.59 239.22 53.96L239.33 53.64C239.35 53.69 239.42 53.65 239.45 53.71C239.75 53.04 238.47 54.04 238.35 53.48C238.35 53.27 238.45 53.06 238.65 53.09L238.15 52.92C238.11 52.81 238.33 52.72 238.37 52.83C238.24 52.67 238.13 52.5 238.01 52.34H238.05C237.82 52.34 237.44 52.3 237.26 52.27C237.37 52.05 237.43 52.28 237.56 52.18C237.41 52.12 237.25 52.06 237.11 51.99C237.38 51.72 237.8 51.86 237.86 52.08C238.96 51.26 237.41 51.96 237.92 51.04L238.18 51.26C238.83 50.8 238.5 50.69 238.84 50.24C238.62 50.37 237.93 51.25 237.49 51.04C237.55 50.91 237.55 50.77 237.23 50.67C237.69 50.53 237.53 50.38 237.45 50.16L238.07 50.01C237.83 49.82 237.52 49.92 237.2 49.84C237.19 49.55 237.66 49.39 238.06 49.25C238.1 48.8 237.32 49.71 237.13 49.2C237.33 48.78 236.99 48.58 236.59 48.14C236.8 47.85 236.98 48.16 237.16 48.04L236.64 47.84C236.64 47.78 236.81 47.79 236.89 47.8C236.68 47.61 236.25 47.82 236.06 47.49C235.71 47.45 235.94 47.27 236.2 47.06C236.46 46.85 236.7 46.62 236.31 46.39C236.5 46.3 236.7 46.46 236.95 46.44C236.45 45.86 236.58 45.95 235.95 45.4L236.43 45.07C235.91 45.28 235.41 44.83 235 44.37C234.76 44.44 234.54 44.5 234.43 44.55C234.35 44.33 234.26 44.11 234.21 43.88C234.33 43.83 234.53 43.94 234.77 44.09C234.73 44.04 234.68 43.99 234.65 43.95C234.93 43.79 235.26 43.99 235.58 44.21C235.44 44.25 235.29 44.29 235.14 44.33C235.5 44.55 235.9 44.75 236.28 44.79C236.21 44.74 236.16 44.67 236.14 44.59C236.24 44.64 236.33 44.68 236.39 44.68C236.46 44.68 236.32 44.59 236.19 44.48L236.92 44.52L236.65 44.43L237.25 43.9C236.65 43.26 235.84 42.5 235.88 41.57C236.27 41.97 236.65 41.94 237.21 42.2C236.52 42.15 237.26 42.87 237 43.18C237.14 43.01 237.4 43.15 237.48 43.23C237.37 42.95 237.26 42.66 237.16 42.36C237.62 42.57 237.56 42.36 237.84 42.29C236.86 42.01 237.46 41.54 237.32 41.13C237.63 41.27 237.9 41.49 237.68 41.77C238.52 41.77 236.84 40.76 237.62 40.73C237.58 40.81 237.51 40.83 237.64 40.94C237.49 40.62 237.96 40.3 238.14 40.56L238.1 40.64C238.46 40.19 239.1 39.24 238.5 38.61C238.59 38.68 239.24 39.32 239.35 39.46C238.83 38.61 238.37 37.7 237.95 36.74C238.42 37.31 239.9 38.27 239.88 38.9C240.05 38.88 240.23 38.83 240.25 38.46C240.11 38.44 239.33 37.87 239.38 37.73C240.22 38.07 239.88 37.87 240.66 38.09C240.45 38.07 239.8 37.11 240 36.98C240.09 37.13 240.75 37.83 240.77 37.97C240.65 37.56 240.55 37.15 240.48 36.75C240.48 37 241.06 37.51 241.35 37.69C241.17 37.55 241.73 37.43 241.78 37.26L241.45 37.19C242.02 36.96 241.06 35.53 241.69 35.21C241.73 35.46 242.27 36.53 242.6 36.5C242.4 35.93 241.83 33.75 242.29 33.05L242.54 33.29C242.64 33.1 242.74 32.91 242.86 32.74C242.86 33.66 242.91 35.69 242.92 36.46C243.24 36.59 243.16 36.77 243.44 36.61C243.68 36.84 243.49 37.1 243.42 37.16L244.16 37.02C243.84 36.41 244.41 36.17 244.19 35.67C244 35.97 243.85 36.33 243.7 36.65C243.37 36.08 243.34 34.67 243.99 34.58C244.23 34.78 244.31 35.74 244.4 35.94C244.38 35.7 244.75 35.34 244.85 35.48L244.75 35.9C245.1 36.03 244.95 34.87 245.51 35.4C245.65 35.4 246.09 36.15 246.01 35.75C245.64 35.05 244.98 32.77 245.01 32.17C245.09 32.2 246 32.67 246.23 33.05C246.56 33.61 246.14 34.51 246.43 34.99C246.4 34.81 246.48 34.57 246.52 34.49C246.69 34.62 246.56 35.06 246.84 34.93C246.79 34.25 247.46 34.89 246.9 34.34C247.18 34.11 247.24 34.41 247.59 34.36C247.43 33.93 247.8 32.85 248.15 32.64C248.14 32.81 248.22 33.04 248.26 33.14C248.95 33.14 249.29 33.53 249.91 33.55C249.96 33.72 250.22 33.93 250.07 34.22C250.17 34.11 250.27 33.9 250.46 33.91C250.73 34.55 250.05 33.94 250.23 34.68C250.3 34.29 250.75 34.21 251.06 34C251.08 33.38 250.46 33.79 250.18 34C250.26 33.16 250.85 32.35 251.65 32.08C252.26 31.98 251.78 32.66 251.9 32.56C252.86 32.98 253.19 31.33 253.88 32.22C254.04 32.85 253.54 33.24 253.49 33.63C253.02 33.66 252.96 33.08 252.65 33.03L252.94 33.37C252.75 33.51 252.44 33.57 252.32 33.37C252.46 33.88 253.92 33.93 254.42 34.68C254.61 34.57 254.91 34.51 254.9 34.26L254.65 34.22C254.62 33.72 255.33 33.88 255.13 33.56C255.56 33.44 256.18 33.16 256.48 33.65L256.25 34.23C256.33 34.07 256.16 33.74 255.95 33.84C256.27 33.71 256.17 34.94 256.77 34.37L256.69 33.83C257.14 33.75 257.92 33.43 258.18 33.89C258.35 33.27 258.06 33.89 258.18 33.1C257.94 33.99 257.15 32.43 257.07 33.46C257.2 32.58 256.76 32.84 256.67 32.02C256.59 32.21 256.64 32.43 256.32 32.17C256.28 32.21 256.2 32.26 256.16 32.29C256.16 32.28 256.15 32.27 256.14 32.26V32.29C256.14 32.29 256.12 32.31 256.15 32.3C256.2 32.42 256.22 32.55 256.19 32.66C255.8 32.99 255.26 32.71 254.98 32.84C254.81 32.65 255.16 32.67 255.13 32.42C254.99 32.48 254.85 32.55 254.71 32.63C254.86 32.21 254.4 31.72 255.03 31.67L254.56 31.47C254.37 31.13 254 30.89 253.7 30.99C253.49 30.83 252.98 31.31 253.27 31.03L252.43 31.1L252.45 30.99C252.08 30.85 251.64 30.99 251.23 31.02C250.81 31.05 250.41 30.97 249.99 30.56C249.72 30.66 249.45 30.78 249.01 30.64L248.93 30.25C248.59 30.36 247.88 29.9 247.75 30.3C247.3 29.24 246.04 30.24 245.42 30.16L245.49 30.66C245.08 30.71 244.72 30.96 244.29 31.28L244.44 31.7C244.13 32.14 243.31 31.72 242.68 32C242.66 31.82 242.84 31.81 242.99 31.86C242.42 31.52 242.07 31.86 241.79 32.25C241.5 32.64 241.26 33.01 240.76 32.88C240.68 33.12 240.54 33.14 240.38 33.11C240.39 33.11 240.4 33.09 240.41 33.07C240.39 33.07 240.37 33.09 240.34 33.1C240.23 33.08 240.11 33.04 240 33.03C240.12 33.08 240.23 33.12 240.31 33.12C240.19 33.2 240.04 33.36 239.92 33.56L239.58 33.2C239.58 33.2 239.56 33.22 239.55 33.24C239.27 33.2 239.54 33.52 239.83 33.76C239.78 33.88 239.76 34.02 239.77 34.16C239.19 33.62 239.5 34.69 238.82 34.16C238.89 34.36 238.72 34.58 238.6 34.84C238.49 35.11 238.43 35.42 238.68 35.77C238.6 35.69 238.52 35.69 238.6 35.61C238.37 35.68 238.14 35.77 238.16 36.07L237.67 35.69C237.74 36 237.81 36.3 237.91 36.62C237.45 36.57 237.2 36.53 237.06 35.98C237.1 37.01 236.85 36.61 237.01 37.52L236.72 37.25C236.6 37.44 236.81 38.03 236.48 37.93C235.54 37.86 235.06 39.82 233.93 40.7C235.09 40.93 233.21 41.05 234.05 41.44C233.77 41.41 233.56 41.53 233.41 41.24C233.44 41.95 232.63 42.06 233.26 42.72C232.97 42.72 232.91 42.47 232.73 42.49C232.77 42.56 232.91 42.76 232.73 42.79C232.55 42.81 232.53 42.63 232.44 42.49C232.31 43.19 233.12 43.45 233.88 43.68C233.43 43.91 233.44 44.09 233.93 44.42C233.66 44.48 233.36 44.63 233.33 44.21C233.26 44.42 232.73 45.55 233.38 45.64C233.21 45.69 233.32 45.95 233.38 46.01C233.32 46.51 233.26 46.55 233.29 47.05L233.4 46.91C234.15 47.11 233.57 47.31 233.68 47.7H233.6C233.1 48.63 233.86 48.05 233.33 49L233.8 48.9C234.83 48.84 233.31 49.75 233.79 50.22L234.03 49.98C234.41 50.17 232.84 51.05 232.8 51.4C232.73 51.49 232.63 51.33 232.55 51.26C232.17 52.21 233.18 51.2 233.47 51.73C233.18 51.93 232.6 51.84 232.66 52.25C232.48 52.55 234.08 52.99 233.7 53.72C233.89 53.5 234.08 53.3 234.37 53.46C234.63 53.77 233.96 54.92 234.88 54.85C234.84 54.93 234.8 54.98 234.74 55.01C235.09 55.18 235.58 55.71 236.04 55.61C235.42 56.19 235.9 56.48 236.33 56.7C236.76 56.93 237.2 57.07 236.63 57.56L237.34 58.22L237.21 58.31C237.57 58.83 238.01 58.7 238.4 58.57C238.43 58.74 238.26 58.78 238.2 58.83C238.65 59.67 238.82 59.67 239.85 59.5L239.62 59.95C239.91 59.84 240.29 61.34 241.37 61.26C241.34 61.31 241.28 61.38 241.18 61.41C241.77 61.36 242.14 61.96 242.57 62.33C243 62.69 243.44 62.89 243.88 62.09C244.13 62.03 244.38 61.93 244.62 61.84C243.88 61.5 244.95 61.12 244.72 60.75C245.03 60.72 245.34 61.47 244.95 61.47L244.92 61.37C244.54 62.24 245.81 61.95 245.66 62.55C247.27 62.82 248.89 63.37 250.51 63.27L250.26 62.56C250.44 62.56 250.62 62.54 250.79 62.53C250.95 62.68 251.06 63.07 250.66 63.1C250.92 63.48 251.27 62.66 251.24 62.5C252.04 62.68 251.08 63.39 251.31 63.37L251.63 63.27L251.54 63.2C251.75 62.85 251.71 62.57 252.17 62.49C252.49 62.56 252.42 62.89 252.54 62.89C252.55 62.94 252.6 62.95 252.72 62.87L253.42 62.75L252.99 62.27C253.2 61.92 253.61 62.13 253.12 61.59C253.48 62.01 254.11 61.87 254.69 61.66C255.26 61.42 255.74 61.08 255.94 61.16C256.14 60.62 256.46 60.39 256.93 60.17C256.76 60.13 256.36 59.62 256.75 59.47C257.36 60.69 257.72 59.52 258.58 60.06C258.25 59.9 258.49 59.68 258.68 59.44C258.87 59.2 258.99 58.93 258.51 58.75C258.85 58.59 258.85 59.12 259.27 59.17C259.58 58.21 260.95 58.04 261.52 57.01C261.39 56.89 261.07 56.87 261 56.52C261.35 56.55 261.7 56.56 262.06 56.57C262.12 56.33 261.36 55.84 262.07 55.84C261.92 55.81 261.69 55.75 261.72 55.6C262.65 54.93 263.04 53.84 263.35 52.79C263.5 52.26 263.69 51.75 263.9 51.23C264.13 50.72 264.47 50.24 264.94 49.74C264.56 49.99 264.56 49.78 264.58 49.55C264.48 49.68 264.15 49.48 263.91 49.47C264.17 49.21 264.45 48.94 264.69 48.65C264.04 48.43 264.69 47.66 264.07 47.54L264.17 47.83C263.44 47.44 262.49 48.25 261.54 48.1C261.96 48.31 261.63 48.53 261.32 48.74C261.01 48.96 260.76 49.18 261.32 49.58C261.11 49.67 261.03 49.42 260.8 49.44C261.19 49.66 261.22 49.85 260.96 50.12L260.87 50.06C260.76 50.96 260.22 51.21 259.61 51.98L260.07 52.11C259.92 52.28 259.76 52.25 259.61 52.29C260.15 52.82 259.91 51.77 260.53 52.29C260.02 52.23 259.86 52.56 259.68 52.88C259.5 53.2 259.26 53.47 258.75 53.27C258.58 53.54 259.26 53.48 259.09 53.75L258.8 53.66L259.08 53.94C258.92 54.09 258.53 53.96 258.33 53.82C258.38 53.8 258.36 53.67 258.37 53.61C257.93 53.61 258.02 54.27 257.87 54.28L258.19 54.15C257.91 55.05 256.88 55.5 256.64 56.52L256.83 56.65C256.58 57.41 256.25 56.79 255.79 57.38V57.32C255.79 57.6 255.68 57.79 255.49 57.87C255.51 57.55 254.92 57.62 254.98 57.25C254.6 57.99 254.88 57.74 254.85 58.7L254.57 58.42C254.57 58.79 254.64 58.95 254.33 59.21C254.48 58.79 253.88 58.8 254.01 58.27C253.5 58.07 253.34 58.37 253.18 58.59C253.02 58.81 252.88 58.99 252.53 58.48C252.53 59.58 253.34 58.79 253.23 59.06C253.52 59.31 253.21 59.88 252.93 59.88C252.67 59.96 252.12 58.75 251.56 58.92C251.62 58.91 251.6 58.83 251.66 58.82C251.39 58.61 251.31 59.3 250.95 58.91C250.91 59.54 250.59 58.93 250.67 59.72L251.21 59.45C250.94 59.7 250.75 60.66 250.13 60.31C250.16 60.14 250.3 59.91 250.39 59.78C250.21 59.57 250.11 59.99 249.92 59.76C249.89 58.99 250.59 59.49 250.82 58.85C250.61 58.54 250.29 59.51 250.33 58.64C250.29 59.2 250.13 59.19 249.96 59.15C249.78 59.09 249.6 59 249.41 59.43V58.95C249.35 59.03 249.23 59.26 249.11 59.25L249.29 58.62C248.99 59.16 248.68 58.21 248.39 58.46C249.01 58.48 248.52 59.05 248.8 59.39C247.95 60 248.36 58.13 247.51 58.32C247.63 58.27 247.92 58.62 247.72 58.84C247.56 58.74 247.36 58.53 247.29 58.26C246.72 58.27 247.31 58.76 247.03 59.01C246.91 58.41 246.71 59.2 246.4 59.34L246.49 58.87C245.89 58.44 246.1 59.82 245.56 59.3L245.98 58.72L245.63 58.81L245.83 58.29C245.4 58.59 245.31 58.49 245.05 58.22C245.02 58.57 244.74 59.04 244.43 58.94C244.33 58.6 244.7 58.55 244.26 58.46C244.46 58.21 244.69 57.89 244.71 58.37C244.78 58.23 244.9 58.12 244.97 57.98C244.88 57.6 244.5 57.73 244.36 57.68C244.41 57.72 244.46 57.76 244.47 57.84C244.2 57.99 243.92 58.11 243.65 58.21C243.64 58 243.77 57.9 243.89 57.81C243.76 57.81 243.59 57.97 243.4 57.92C243.61 57.59 243.79 57.22 244.08 57.16L243.39 57.31C243.43 57.14 243.35 56.77 243.49 56.68C243.37 56.32 242.46 56.95 242.28 56.46C242.22 56.51 242.14 56.54 242.04 56.54C241.78 56.21 241.79 55.68 241.11 55.77L241.39 55.07C241.02 54.95 241.06 55.96 240.42 55.74C239.93 55.6 240.72 55.2 240.75 54.96C240.37 55.06 239.57 55.25 239.72 54.58C239.91 54.59 239.9 54.73 240.02 54.79L240.07 54.8ZM237.5 51.03C237.63 51.08 237.98 51.14 237.74 51.3C237.19 51.4 237.41 51.23 237.5 51.03ZM236.1 43.8C236.24 43.91 236.13 44 235.92 44.08C235.9 43.98 235.95 43.88 236.1 43.8ZM254.12 31.56L254.1 31.58C253.9 31.31 253.97 31.41 254.12 31.56ZM254.58 31.95C254.66 31.91 254.68 31.84 254.68 31.77C254.6 31.87 254.48 31.83 254.35 31.75C254.35 31.88 254.38 31.99 254.58 31.95ZM252.59 62.67L252.45 62.57C252.65 62.37 252.62 62.51 252.59 62.67Z" fill="#E37C4A"/>
<path d="M236.55 44.77C236.47 44.78 236.38 44.77 236.29 44.77C236.36 44.82 236.46 44.84 236.55 44.77Z" fill="#E37C4A"/>
<path d="M242.31 56.4599C242.31 56.4599 242.31 56.4599 242.31 56.4699C242.33 56.4499 242.35 56.4299 242.37 56.4099L242.3 56.4599H242.31Z" fill="#E37C4A"/>
<path d="M246.65 35.14C246.55 35.08 246.49 35 246.44 34.92C246.46 35.04 246.52 35.13 246.65 35.14Z" fill="#E37C4A"/>
<path d="M257.7 32.59L257.31 32.5C257.48 32.57 257.48 32.7 257.52 32.81C257.57 32.71 257.59 32.53 257.7 32.59Z" fill="#E37C4A"/>
<path d="M258.3 36.78C258.37 36.77 258.38 36.84 258.45 36.83L258.59 36.66C258.43 36.54 258.21 36.58 258.29 36.78H258.3Z" fill="#E37C4A"/>
<path d="M257.13 34.12C256.93 34.48 257.2 34.46 257.43 34.55C257.42 34.55 257.4 34.54 257.4 34.52C257.78 34.09 257.46 34.09 257.14 34.12H257.13Z" fill="#E37C4A"/>
<path d="M257.48 34.5699C257.55 34.5999 257.62 34.6299 257.66 34.6899C257.82 34.5199 257.61 34.5999 257.48 34.5699Z" fill="#E37C4A"/>
<path d="M255.36 31.97C255.43 32.12 255.64 31.53 255.64 31.71C255.97 31.29 254.64 31.94 255.36 31.97Z" fill="#E37C4A"/>
<path d="M256.56 35.34L256.76 34.88L256.44 35.15L256.56 35.34Z" fill="#E37C4A"/>
<path d="M255.21 34.14L255.47 34.42C255.5 34.34 255.57 34.32 255.64 34.31C255.45 34.2 255.27 34 255.21 34.14Z" fill="#E37C4A"/>
<path d="M255.63 34.3099C255.73 34.3699 255.83 34.4199 255.92 34.3899C255.86 34.3599 255.74 34.2999 255.63 34.3099Z" fill="#E37C4A"/>
<path d="M256.06 35.21L256.03 35.07L255.84 34.91L256.06 35.21Z" fill="#E37C4A"/>
<path d="M251.55 32.79L251.13 32.87C251.06 33.03 251.15 33.15 251.3 33.11C251.41 33.01 251.57 32.96 251.54 32.79H251.55Z" fill="#E37C4A"/>
<path d="M252.34 34.4C252.27 34.28 252.3 34.17 252.28 33.99L252.11 34.59L252.34 34.4Z" fill="#E37C4A"/>
<path d="M251.3 34.28C251.23 34.44 250.71 34.69 251.15 34.72C251.22 34.55 251.59 34.48 251.3 34.28Z" fill="#E37C4A"/>
<path d="M245.78 33.57L245.87 33.5401L245.65 32.55L245.78 33.57Z" fill="#E37C4A"/>
<path d="M242.51 37.55C242.96 37.57 242.25 36.97 242.7 37.06C242.65 36.81 242.33 37 242.3 36.77C242.23 37.11 242.05 37.05 242.51 37.55Z" fill="#E37C4A"/>
<path d="M242.3 36.7601C242.31 36.7101 242.32 36.6401 242.32 36.5601C242.29 36.6501 242.29 36.7101 242.3 36.7601Z" fill="#E37C4A"/>
<path d="M265.27 48.05L265.5 47.71L265.15 47.92L265.27 48.05Z" fill="#E37C4A"/>
<path d="M264.55 47.3801L265.2 47.3101L264.62 47.1001C264.65 47.1701 264.69 47.3201 264.55 47.3701V47.3801Z" fill="#E37C4A"/>
<path d="M238.55 50.02L238.4 50.05C238.25 50.13 238.25 50.19 238.25 50.3L238.56 50.03L238.55 50.02Z" fill="#E37C4A"/>
<path d="M239.35 53L239.34 52.95L238.89 53.3499L239.35 53Z" fill="#E37C4A"/>
<path d="M241.52 54.5101C241.46 54.4301 241.29 54.4301 241.24 54.3401C241.45 54.4301 241.03 55.0501 241.52 54.5101Z" fill="#E37C4A"/>
<path d="M108.67 482.42V481.94L112.41 481.41V449.54L109 448.92V448.44H121.96L133.14 474.07L132.32 473.11H134L133.42 474.07L140.62 448.44H153.29V448.92L150.7 449.45V481.42L153.29 481.95V482.43H138.17V481.95L141.19 481.42V453.82H140.47L131.88 482.43H126.46L113.88 454.83H113.11V459.77C113.11 461.15 113.21 462.72 113.42 464.5C113.63 466.28 113.94 468.1 114.36 469.97C114.78 471.84 115.33 473.62 116.02 475.3C116.71 476.98 117.54 478.41 118.52 479.6C119.5 480.78 120.62 481.57 121.9 481.95V482.43H108.65L108.67 482.42Z" fill="white"/>
<path d="M154.36 482.42V481.94L157 481.41L170.39 448.43H176.39L189.35 481.41L191.85 481.94V482.42H175.72V482.13L179.08 481.46L168.86 455.49H168.28L166.02 461.49C165.12 463.76 164.44 465.92 163.98 467.97C163.52 470.02 163.28 471.83 163.28 473.39C163.28 474.95 163.53 476.44 164.02 477.73C164.51 479.02 165.3 480.05 166.37 480.8C167.44 481.55 168.83 481.93 170.52 481.93V482.41H154.34L154.36 482.42ZM162.48 468.69V468.21L174.34 467.39V468.69H162.48Z" fill="white"/>
<path d="M193.2 482.42V481.94L196.94 481.41V449.54L193.53 448.92V448.44H206.49L217.67 474.07L216.85 473.11H218.53L217.95 474.07L225.15 448.44H237.82V448.92L235.23 449.45V481.42L237.82 481.95V482.43H222.7V481.95L225.72 481.42V453.82H225L216.41 482.43H210.99L198.41 454.83H197.64V459.77C197.64 461.15 197.74 462.72 197.95 464.5C198.16 466.28 198.47 468.1 198.89 469.97C199.31 471.84 199.86 473.62 200.55 475.3C201.24 476.98 202.07 478.41 203.05 479.6C204.03 480.78 205.15 481.57 206.43 481.95V482.43H193.18L193.2 482.42Z" fill="white"/>
<path d="M238.89 482.42V481.94L241.53 481.41L254.92 448.43H260.92L273.88 481.41L276.38 481.94V482.42H260.25V482.13L263.61 481.46L253.39 455.49H252.81L250.55 461.49C249.65 463.76 248.97 465.92 248.51 467.97C248.05 470.02 247.81 471.83 247.81 473.39C247.81 474.95 248.06 476.44 248.55 477.73C249.04 479.02 249.83 480.05 250.9 480.8C251.97 481.55 253.36 481.93 255.05 481.93V482.41H238.87L238.89 482.42ZM247 468.69V468.21L258.86 467.39V468.69H247Z" fill="white"/>
<path d="M283.44 458.47L283.15 457.85C283.6 457.66 284.03 457.43 284.45 457.18C284.87 456.92 285.25 456.64 285.6 456.32C285.95 456 286.22 455.7 286.42 455.41L285.89 454.98H285.27C284.41 454.98 283.66 454.82 283.04 454.5C282.42 454.18 281.93 453.76 281.58 453.23C281.23 452.7 281.05 452.09 281.05 451.38C281.05 450.67 281.23 450 281.6 449.46C281.97 448.92 282.47 448.49 283.11 448.19C283.75 447.89 284.47 447.73 285.27 447.73C286.07 447.73 286.79 447.88 287.43 448.19C288.07 448.49 288.57 448.93 288.94 449.49C289.31 450.05 289.49 450.7 289.49 451.43C289.49 452.16 289.33 452.95 289.01 453.69C288.69 454.43 288.26 455.11 287.71 455.75C287.17 456.39 286.53 456.94 285.79 457.41C285.05 457.87 284.27 458.23 283.44 458.49V458.47Z" fill="white"/>
<path d="M309.74 483.14C308.2 483.14 306.6 483.01 304.94 482.76C303.27 482.5 301.68 482.15 300.14 481.7C298.6 481.25 297.21 480.71 295.96 480.07L296.92 468.21H297.78L301.33 475.51C302.07 477.05 302.91 478.33 303.87 479.37C304.83 480.41 305.9 481.18 307.09 481.67C308.27 482.17 309.49 482.41 310.74 482.41C311.8 482.41 312.69 482.27 313.43 481.98C314.17 481.69 314.73 481.26 315.13 480.68C315.53 480.1 315.73 479.43 315.73 478.66C315.73 477.7 315.47 476.78 314.94 475.9C314.41 475.02 313.55 474.1 312.35 473.14C311.15 472.18 309.49 471.11 307.38 469.92C304.47 468.1 302.16 466.5 300.47 465.12C298.77 463.74 297.56 462.46 296.82 461.26C296.08 460.06 295.72 458.8 295.72 457.49C295.72 456.18 296.06 454.83 296.73 453.63C297.4 452.43 298.37 451.39 299.63 450.51C300.89 449.63 302.4 448.94 304.14 448.45C305.88 447.95 307.84 447.71 310.02 447.71C311.91 447.71 313.68 447.85 315.32 448.14C316.97 448.43 318.47 448.82 319.83 449.32C321.19 449.82 322.32 450.38 323.21 451.02L321.15 462.3H320.29L318.56 457.93C317.63 455.63 316.69 453.78 315.75 452.39C314.81 451 313.79 449.99 312.7 449.37C311.61 448.75 310.41 448.43 309.1 448.43C307.79 448.43 306.66 448.59 305.72 448.91C304.78 449.23 304.05 449.69 303.56 450.28C303.06 450.87 302.82 451.6 302.82 452.46C302.82 453.32 303.16 454.26 303.83 455.17C304.5 456.08 305.62 457.11 307.19 458.24C308.76 459.38 310.89 460.71 313.57 462.25C315.62 463.4 317.33 464.47 318.71 465.44C320.09 466.42 321.2 467.34 322.05 468.22C322.9 469.1 323.5 469.98 323.85 470.86C324.2 471.74 324.38 472.68 324.38 473.67C324.38 475.08 324.09 476.31 323.52 477.37C322.94 478.43 322.16 479.32 321.17 480.06C320.18 480.8 319.05 481.39 317.79 481.84C316.53 482.29 315.21 482.62 313.83 482.82C312.45 483.03 311.09 483.13 309.75 483.13L309.74 483.14Z" fill="white"/>
<path d="M136.89 540.74C135.8 540.74 134.84 540.57 134.01 540.24C133.18 539.9 132.39 539.34 131.66 538.56C130.92 537.78 130.14 536.71 129.31 535.37C128.86 534.54 128.39 533.69 127.89 532.83C127.39 531.97 126.88 531.04 126.35 530.05C125.82 529.06 125.26 528.02 124.67 526.93C124.08 525.84 123.43 524.69 122.73 523.47H121.34V539.02L123.98 539.55V540.03H109.24V539.55L111.83 539.02V507.05L109.24 506.52V506.04H121.34V522.79C121.66 522.79 121.97 522.77 122.28 522.74C122.58 522.71 122.88 522.66 123.17 522.6C123.94 522.44 124.67 522.09 125.35 521.54C126.04 521 126.69 520.33 127.32 519.55C127.95 518.77 128.51 517.93 129.02 517.03C129.44 516.26 129.8 515.48 130.1 514.68C130.4 513.88 130.64 513.1 130.8 512.33C130.96 511.56 131.04 510.86 131.04 510.22C131.04 509.13 130.74 508.24 130.13 507.56C129.52 506.87 128.56 506.53 127.25 506.53V506.05H142.27V506.53L139.73 507.06C139.73 508.31 139.51 509.55 139.06 510.78C138.61 512.01 138.01 513.19 137.26 514.31C136.51 515.43 135.65 516.45 134.69 517.38C133.51 518.53 132.24 519.53 130.9 520.38C129.56 521.23 128.28 521.88 127.08 522.35C125.88 522.81 124.9 523.08 124.13 523.14V523.38C125.86 523.41 127.38 523.56 128.69 523.84C130 524.11 131.15 524.54 132.12 525.14C133.1 525.73 133.96 526.52 134.71 527.49C135.46 528.47 136.14 529.66 136.75 531.07C137.42 532.64 138.03 533.93 138.57 534.93C139.11 535.94 139.64 536.72 140.15 537.28C140.66 537.84 141.19 538.28 141.73 538.6C142.02 538.76 142.32 538.81 142.64 538.74V539.22C142 539.7 141.34 540.04 140.67 540.25C140 540.46 139.34 540.59 138.7 540.66C138.06 540.72 137.45 540.76 136.88 540.76L136.89 540.74Z" fill="white"/>
<path d="M159.69 506.03V506.51L157.05 507.04V539.01L159.69 539.54V540.02H144.95V539.54L147.54 539.01V507.04L144.95 506.51V506.03H159.69Z" fill="white"/>
<path d="M171.6 540.02V539.54L174.24 539.01V506.75H172.18C171.48 506.75 170.79 506.98 170.12 507.45C169.45 507.91 168.82 508.61 168.25 509.54C167.67 510.47 167.16 511.65 166.71 513.09L164.5 519.67H163.59L162.01 506.04H195.95L194.37 519.67H193.46L191.3 513.14C190.82 511.7 190.29 510.51 189.72 509.56C189.14 508.62 188.53 507.91 187.87 507.45C187.21 506.99 186.52 506.75 185.78 506.75H183.76V539.01L186.35 539.54V540.02H171.61H171.6Z" fill="white"/>
<path d="M229.72 533.83C228.54 535.5 227.19 536.83 225.69 537.84C224.19 538.85 222.59 539.58 220.91 540.05C219.23 540.51 217.53 540.75 215.8 540.75C213.4 540.75 211.15 540.36 209.06 539.57C206.96 538.79 205.14 537.63 203.59 536.11C202.04 534.59 200.82 532.74 199.94 530.57C199.06 528.39 198.62 525.91 198.62 523.13C198.62 520.35 199.04 517.92 199.87 515.74C200.7 513.56 201.9 511.69 203.47 510.12C205.04 508.55 206.94 507.36 209.18 506.54C211.42 505.72 213.93 505.32 216.72 505.32C218.51 505.32 220.23 505.49 221.88 505.82C223.53 506.15 225.04 506.59 226.42 507.12C227.8 507.65 228.93 508.2 229.83 508.78L227.05 522.36H226.14L223.93 515.3C223.29 513.19 222.53 511.44 221.65 510.07C220.77 508.69 219.76 507.66 218.63 506.97C217.49 506.28 216.22 505.94 214.81 505.94C213.79 505.94 212.85 506.32 212 507.09C211.15 507.86 210.44 508.91 209.86 510.23C209.28 511.56 208.84 513.08 208.52 514.79C208.2 516.5 208.04 518.32 208.04 520.24C208.04 522.35 208.3 524.38 208.81 526.31C209.32 528.25 210.12 529.98 211.21 531.52C212.3 533.06 213.7 534.26 215.41 535.14C217.12 536.02 219.16 536.46 221.53 536.46C222.97 536.46 224.35 536.21 225.68 535.72C227.01 535.23 228.2 534.48 229.26 533.49L229.74 533.83H229.72Z" fill="white"/>
<path d="M247.63 506.03V506.51L245.37 507.04V539.01L247.63 539.54V540.02H233.28V539.54L235.87 539.01V507.04L233.28 506.51V506.03H247.63ZM258.62 522.83V524.17H244.89V523.69L258.62 522.83ZM270.33 506.03V506.51L267.69 507.04V539.01L270.33 539.54V540.02H255.98V539.54L258.19 539.01V507.04L255.98 506.51V506.03H270.33Z" fill="white"/>
<path d="M273.4 540.02V539.54L275.99 538.82V507.24L273.4 506.52V506.04H302.58L300.9 519.1H300.37L296.91 510.94C296.27 509.56 295.49 508.52 294.56 507.82C293.63 507.12 292.75 506.76 291.92 506.76H285.49V522.46H288.13C288.71 522.46 289.25 522.3 289.76 521.98C290.27 521.66 290.75 521.28 291.2 520.83C291.87 520.13 292.43 519.29 292.88 518.33C293.33 517.37 293.6 516.54 293.7 515.83H294.18V528.12H293.7L288.04 522.98H285.5V539.3H292.08C293.17 539.3 294.26 538.83 295.34 537.88C296.43 536.94 297.29 535.62 297.93 533.92L300.38 526.77H300.91L302.59 540.02H273.41H273.4Z" fill="white"/>
<path d="M306.19 540.02V539.54L309.55 539.01V510.79C309.55 509.99 309.25 509.21 308.66 508.46C308.07 507.71 307.24 507.06 306.19 506.52V506.04H318.19L336 529.61H336.77V523.95C336.77 522.48 336.64 521.03 336.39 519.61C336.13 518.19 335.75 516.81 335.24 515.48C334.73 514.15 334.08 512.92 333.3 511.78C332.52 510.64 331.61 509.63 330.59 508.73C329.57 507.83 328.4 507.1 327.09 506.52V506.04H341.39V506.52L337.5 507.05V540.03H332.41L310.95 512.05H310.28V517.43C310.28 519.38 310.41 521.25 310.66 523.05C310.92 524.84 311.33 526.54 311.91 528.14C312.49 529.74 313.21 531.24 314.09 532.63C314.97 534.02 316.04 535.3 317.31 536.47C318.57 537.64 320.02 538.67 321.65 539.57V540.05H306.19V540.02Z" fill="white"/>
</g>
<defs>
<clipPath id="clip0_160_68">
<rect width="362.92" height="576.89" fill="white"/>
</clipPath>
</defs>
</svg>
