<svg width="586" height="586" viewBox="0 0 586 586" fill="none" xmlns="http://www.w3.org/2000/svg">
<rect width="586" height="586" fill="#D9D9D9"/>
<path d="M228.999 293.27C227.999 293.27 227.099 293.08 226.299 292.7C225.519 292.3 224.899 291.76 224.439 291.08C223.979 290.4 223.749 289.64 223.749 288.8C223.749 287.72 224.019 286.87 224.559 286.25C225.119 285.63 226.029 285.19 227.289 284.93C228.569 284.67 230.309 284.54 232.509 284.54H233.859V286.13H232.539C230.919 286.13 229.639 286.21 228.699 286.37C227.779 286.51 227.129 286.76 226.749 287.12C226.389 287.48 226.209 287.99 226.209 288.65C226.209 289.47 226.489 290.14 227.049 290.66C227.629 291.18 228.409 291.44 229.389 291.44C230.189 291.44 230.889 291.25 231.489 290.87C232.109 290.49 232.589 289.97 232.929 289.31C233.289 288.65 233.469 287.89 233.469 287.03V283.61C233.469 282.37 233.219 281.48 232.719 280.94C232.219 280.38 231.399 280.1 230.259 280.1C229.559 280.1 228.859 280.19 228.159 280.37C227.459 280.55 226.719 280.84 225.939 281.24C225.659 281.38 225.419 281.43 225.219 281.39C225.019 281.33 224.859 281.22 224.739 281.06C224.619 280.9 224.549 280.72 224.529 280.52C224.509 280.3 224.549 280.09 224.649 279.89C224.769 279.69 224.949 279.53 225.189 279.41C226.069 278.97 226.939 278.65 227.799 278.45C228.659 278.25 229.479 278.15 230.259 278.15C231.519 278.15 232.559 278.36 233.379 278.78C234.199 279.18 234.809 279.8 235.209 280.64C235.609 281.46 235.809 282.52 235.809 283.82V291.95C235.809 292.35 235.709 292.66 235.509 292.88C235.329 293.1 235.059 293.21 234.699 293.21C234.319 293.21 234.029 293.1 233.829 292.88C233.629 292.66 233.529 292.35 233.529 291.95V289.61H233.799C233.639 290.37 233.329 291.02 232.869 291.56C232.429 292.1 231.879 292.52 231.219 292.82C230.559 293.12 229.819 293.27 228.999 293.27ZM245.867 293.27C244.567 293.27 243.427 292.96 242.447 292.34C241.487 291.72 240.737 290.85 240.197 289.73C239.677 288.59 239.417 287.25 239.417 285.71C239.417 284.15 239.677 282.81 240.197 281.69C240.737 280.55 241.487 279.68 242.447 279.08C243.427 278.46 244.567 278.15 245.867 278.15C247.187 278.15 248.317 278.48 249.257 279.14C250.197 279.8 250.827 280.69 251.147 281.81H250.817V272.87C250.817 272.47 250.917 272.17 251.117 271.97C251.337 271.75 251.647 271.64 252.047 271.64C252.427 271.64 252.717 271.75 252.917 271.97C253.137 272.17 253.247 272.47 253.247 272.87V291.95C253.247 292.35 253.147 292.66 252.947 292.88C252.747 293.1 252.447 293.21 252.047 293.21C251.667 293.21 251.367 293.1 251.147 292.88C250.947 292.66 250.847 292.35 250.847 291.95V289.1L251.177 289.52C250.857 290.66 250.217 291.57 249.257 292.25C248.317 292.93 247.187 293.27 245.867 293.27ZM246.377 291.32C247.277 291.32 248.067 291.1 248.747 290.66C249.427 290.22 249.947 289.58 250.307 288.74C250.687 287.9 250.877 286.89 250.877 285.71C250.877 283.89 250.467 282.5 249.647 281.54C248.847 280.58 247.757 280.1 246.377 280.1C245.457 280.1 244.657 280.32 243.977 280.76C243.317 281.18 242.797 281.81 242.417 282.65C242.057 283.47 241.877 284.49 241.877 285.71C241.877 287.51 242.287 288.9 243.107 289.88C243.927 290.84 245.017 291.32 246.377 291.32ZM263.357 293.27C262.057 293.27 260.917 292.96 259.937 292.34C258.977 291.72 258.227 290.85 257.687 289.73C257.167 288.59 256.907 287.25 256.907 285.71C256.907 284.15 257.167 282.81 257.687 281.69C258.227 280.55 258.977 279.68 259.937 279.08C260.917 278.46 262.057 278.15 263.357 278.15C264.677 278.15 265.807 278.48 266.747 279.14C267.687 279.8 268.317 280.69 268.637 281.81H268.307V272.87C268.307 272.47 268.407 272.17 268.607 271.97C268.827 271.75 269.137 271.64 269.537 271.64C269.917 271.64 270.207 271.75 270.407 271.97C270.627 272.17 270.737 272.47 270.737 272.87V291.95C270.737 292.35 270.637 292.66 270.437 292.88C270.237 293.1 269.937 293.21 269.537 293.21C269.157 293.21 268.857 293.1 268.637 292.88C268.437 292.66 268.337 292.35 268.337 291.95V289.1L268.667 289.52C268.347 290.66 267.707 291.57 266.747 292.25C265.807 292.93 264.677 293.27 263.357 293.27ZM263.867 291.32C264.767 291.32 265.557 291.1 266.237 290.66C266.917 290.22 267.437 289.58 267.797 288.74C268.177 287.9 268.367 286.89 268.367 285.71C268.367 283.89 267.957 282.5 267.137 281.54C266.337 280.58 265.247 280.1 263.867 280.1C262.947 280.1 262.147 280.32 261.467 280.76C260.807 281.18 260.287 281.81 259.907 282.65C259.547 283.47 259.367 284.49 259.367 285.71C259.367 287.51 259.777 288.9 260.597 289.88C261.417 290.84 262.507 291.32 263.867 291.32ZM284.232 293.15C283.832 293.15 283.532 293.04 283.332 292.82C283.132 292.58 283.032 292.25 283.032 291.83V279.56C283.032 279.14 283.132 278.82 283.332 278.6C283.532 278.38 283.832 278.27 284.232 278.27C284.612 278.27 284.912 278.38 285.132 278.6C285.352 278.82 285.462 279.14 285.462 279.56V291.83C285.462 292.25 285.352 292.58 285.132 292.82C284.932 293.04 284.632 293.15 284.232 293.15ZM284.232 274.91C283.732 274.91 283.342 274.78 283.062 274.52C282.782 274.24 282.642 273.87 282.642 273.41C282.642 272.93 282.782 272.57 283.062 272.33C283.342 272.07 283.732 271.94 284.232 271.94C284.752 271.94 285.142 272.07 285.402 272.33C285.682 272.57 285.822 272.93 285.822 273.41C285.822 273.87 285.682 274.24 285.402 274.52C285.142 274.78 284.752 274.91 284.232 274.91ZM291.265 293.21C290.865 293.21 290.565 293.1 290.365 292.88C290.165 292.66 290.065 292.35 290.065 291.95V279.44C290.065 279.04 290.165 278.74 290.365 278.54C290.565 278.32 290.855 278.21 291.235 278.21C291.615 278.21 291.905 278.32 292.105 278.54C292.325 278.74 292.435 279.04 292.435 279.44V282.08L292.105 281.66C292.485 280.54 293.095 279.68 293.935 279.08C294.795 278.46 295.815 278.15 296.995 278.15C298.235 278.15 299.235 278.45 299.995 279.05C300.775 279.63 301.295 280.54 301.555 281.78H301.105C301.465 280.66 302.105 279.78 303.025 279.14C303.965 278.48 305.055 278.15 306.295 278.15C307.395 278.15 308.295 278.36 308.995 278.78C309.715 279.2 310.255 279.84 310.615 280.7C310.975 281.54 311.155 282.61 311.155 283.91V291.95C311.155 292.35 311.045 292.66 310.825 292.88C310.625 293.1 310.325 293.21 309.925 293.21C309.545 293.21 309.245 293.1 309.025 292.88C308.825 292.66 308.725 292.35 308.725 291.95V284.03C308.725 282.69 308.495 281.71 308.035 281.09C307.575 280.45 306.795 280.13 305.695 280.13C304.495 280.13 303.545 280.55 302.845 281.39C302.165 282.21 301.825 283.33 301.825 284.75V291.95C301.825 292.35 301.715 292.66 301.495 292.88C301.295 293.1 300.995 293.21 300.595 293.21C300.215 293.21 299.915 293.1 299.695 292.88C299.495 292.66 299.395 292.35 299.395 291.95V284.03C299.395 282.69 299.155 281.71 298.675 281.09C298.215 280.45 297.445 280.13 296.365 280.13C295.165 280.13 294.215 280.55 293.515 281.39C292.835 282.21 292.495 283.33 292.495 284.75V291.95C292.495 292.79 292.085 293.21 291.265 293.21ZM320.288 293.27C319.288 293.27 318.388 293.08 317.588 292.7C316.808 292.3 316.188 291.76 315.728 291.08C315.268 290.4 315.038 289.64 315.038 288.8C315.038 287.72 315.308 286.87 315.848 286.25C316.408 285.63 317.318 285.19 318.578 284.93C319.858 284.67 321.598 284.54 323.798 284.54H325.148V286.13H323.828C322.208 286.13 320.928 286.21 319.988 286.37C319.068 286.51 318.418 286.76 318.038 287.12C317.678 287.48 317.498 287.99 317.498 288.65C317.498 289.47 317.778 290.14 318.338 290.66C318.918 291.18 319.698 291.44 320.678 291.44C321.478 291.44 322.178 291.25 322.778 290.87C323.398 290.49 323.878 289.97 324.218 289.31C324.578 288.65 324.758 287.89 324.758 287.03V283.61C324.758 282.37 324.508 281.48 324.008 280.94C323.508 280.38 322.688 280.1 321.548 280.1C320.848 280.1 320.148 280.19 319.448 280.37C318.748 280.55 318.008 280.84 317.228 281.24C316.948 281.38 316.708 281.43 316.508 281.39C316.308 281.33 316.148 281.22 316.028 281.06C315.908 280.9 315.838 280.72 315.818 280.52C315.798 280.3 315.838 280.09 315.938 279.89C316.058 279.69 316.238 279.53 316.478 279.41C317.358 278.97 318.228 278.65 319.088 278.45C319.948 278.25 320.768 278.15 321.548 278.15C322.808 278.15 323.848 278.36 324.668 278.78C325.488 279.18 326.098 279.8 326.498 280.64C326.898 281.46 327.098 282.52 327.098 283.82V291.95C327.098 292.35 326.998 292.66 326.798 292.88C326.618 293.1 326.348 293.21 325.988 293.21C325.608 293.21 325.318 293.1 325.118 292.88C324.918 292.66 324.818 292.35 324.818 291.95V289.61H325.088C324.928 290.37 324.618 291.02 324.158 291.56C323.718 292.1 323.168 292.52 322.508 292.82C321.848 293.12 321.108 293.27 320.288 293.27ZM338.056 298.67C336.996 298.67 335.956 298.54 334.936 298.28C333.936 298.04 333.026 297.65 332.206 297.11C331.966 296.97 331.806 296.8 331.726 296.6C331.666 296.4 331.656 296.2 331.696 296C331.736 295.82 331.826 295.65 331.966 295.49C332.106 295.35 332.266 295.26 332.446 295.22C332.646 295.18 332.846 295.21 333.046 295.31C333.926 295.85 334.766 296.22 335.566 296.42C336.366 296.62 337.156 296.72 337.936 296.72C339.356 296.72 340.426 296.34 341.146 295.58C341.886 294.82 342.256 293.72 342.256 292.28V288.89H342.556C342.256 290.05 341.616 290.97 340.636 291.65C339.676 292.33 338.546 292.67 337.246 292.67C335.906 292.67 334.746 292.37 333.766 291.77C332.786 291.15 332.026 290.29 331.486 289.19C330.966 288.09 330.706 286.82 330.706 285.38C330.706 284.3 330.856 283.32 331.156 282.44C331.456 281.54 331.886 280.78 332.446 280.16C333.026 279.52 333.716 279.03 334.516 278.69C335.336 278.33 336.246 278.15 337.246 278.15C338.566 278.15 339.706 278.49 340.666 279.17C341.626 279.83 342.246 280.73 342.526 281.87L342.226 282.23V279.44C342.226 279.04 342.326 278.74 342.526 278.54C342.746 278.32 343.046 278.21 343.426 278.21C343.826 278.21 344.126 278.32 344.326 278.54C344.526 278.74 344.626 279.04 344.626 279.44V291.95C344.626 294.17 344.066 295.84 342.946 296.96C341.846 298.1 340.216 298.67 338.056 298.67ZM337.696 290.69C338.636 290.69 339.446 290.48 340.126 290.06C340.806 289.62 341.326 289 341.686 288.2C342.066 287.4 342.256 286.46 342.256 285.38C342.256 283.76 341.846 282.48 341.026 281.54C340.206 280.58 339.096 280.1 337.696 280.1C336.776 280.1 335.976 280.32 335.296 280.76C334.616 281.18 334.086 281.79 333.706 282.59C333.346 283.37 333.166 284.3 333.166 285.38C333.166 287 333.576 288.29 334.396 289.25C335.216 290.21 336.316 290.69 337.696 290.69ZM355.754 293.27C354.214 293.27 352.884 292.97 351.764 292.37C350.664 291.75 349.804 290.88 349.184 289.76C348.584 288.64 348.284 287.3 348.284 285.74C348.284 284.22 348.584 282.9 349.184 281.78C349.784 280.64 350.604 279.75 351.644 279.11C352.704 278.47 353.924 278.15 355.304 278.15C356.284 278.15 357.164 278.32 357.944 278.66C358.724 278.98 359.384 279.45 359.924 280.07C360.484 280.69 360.904 281.44 361.184 282.32C361.484 283.2 361.634 284.19 361.634 285.29C361.634 285.61 361.544 285.85 361.364 286.01C361.184 286.15 360.924 286.22 360.584 286.22H350.144V284.63H360.014L359.534 285.02C359.534 283.94 359.374 283.03 359.054 282.29C358.734 281.53 358.264 280.95 357.644 280.55C357.044 280.15 356.284 279.95 355.364 279.95C354.344 279.95 353.474 280.19 352.754 280.67C352.054 281.13 351.524 281.78 351.164 282.62C350.804 283.44 350.624 284.4 350.624 285.5V285.68C350.624 287.52 351.064 288.92 351.944 289.88C352.844 290.84 354.114 291.32 355.754 291.32C356.434 291.32 357.104 291.23 357.764 291.05C358.444 290.87 359.104 290.57 359.744 290.15C360.024 289.97 360.274 289.89 360.494 289.91C360.734 289.91 360.924 289.98 361.064 290.12C361.204 290.24 361.294 290.4 361.334 290.6C361.394 290.78 361.374 290.98 361.274 291.2C361.194 291.42 361.024 291.61 360.764 291.77C360.104 292.25 359.324 292.62 358.424 292.88C357.524 293.14 356.634 293.27 355.754 293.27Z" fill="black"/>
</svg>
